<?xml version="1.0" encoding="UTF-8"?>
<svg id="Layer_1" data-name="Layer 1" xmlns="http://www.w3.org/2000/svg" viewBox="0 0 415.14 415.26" fill="#1B9AAA">
  <path d="m210.79,0c6.86,2.68,11.88,6.91,12.25,14.88.38,8.3-5.09,15.12-13.36,16.05-8.85.99-17.81,1.05-26.63,2.23-32.81,4.39-62.02,17.32-87.42,38.44-29.08,24.17-49.43,54.38-58.43,91.24-14.82,60.67-1.99,115.17,39.41,162.24,27.41,31.17,62.05,50.25,103.02,56.45,53.88,8.16,102.07-5.47,143.51-41.21,27.35-23.59,45.96-52.97,54.71-88.04,3.15-12.61,3.96-25.81,5.76-38.75.33-2.4.15-4.87.45-7.27.97-7.8,6.26-13.31,13.37-14.09,7.68-.84,13.99,3.07,16.84,10.43.24.61.58,1.17.88,1.75v15.41c-.25,1.44-.54,2.87-.75,4.31-1.3,8.94-2.04,18-3.96,26.8-10.84,49.85-36.44,90.71-77.05,121.47-50.51,38.26-107.4,50.96-169.43,38.02-49.65-10.36-90.02-36.38-120.89-76.52C9.72,290.5-4.15,241.14,1.07,186.82c4.23-44.01,21.31-82.87,50.64-116.05C83.86,34.4,123.91,11.75,171.78,3.23,179.59,1.84,187.51,1.06,195.38,0c5.14,0,10.27,0,15.41,0Z"/>
  <path d="m193.86,244.96c1.35-1.94,2.1-3.45,3.23-4.59,60.64-60.54,121.32-121.03,181.95-181.58,4.43-4.43,9.21-7.48,15.79-6.3,11.81,2.11,16.97,15.68,9.49,25.06-1.01,1.26-2.18,2.4-3.32,3.55-64.87,64.72-129.74,129.43-194.62,194.13-9.56,9.53-18.08,9.32-27.32-.71-25.09-27.23-50.19-54.46-75.24-81.72-7.37-8.02-6.76-18.61,1.24-24.4,5.86-4.24,13.58-3.99,19.11.68,1.34,1.13,2.54,2.43,3.72,3.72,20.97,22.76,41.94,45.52,62.89,68.29.81.88,1.5,1.88,3.07,3.86Z"/>
</svg>