<svg width="32" height="32" viewBox="0 0 32 32" fill="none" xmlns="http://www.w3.org/2000/svg">
<g clip-path="url(#clip0_608_5997)">
<path d="M32 24.9517C31.9292 25.095 31.8575 25.2384 31.7867 25.3817C31.4733 26.015 30.9317 26.35 30.2592 26.3667C28.8567 26.4025 27.4525 26.3884 26.05 26.365C25.5467 26.3567 25.1425 26.0925 24.8208 25.7025C24.53 25.35 24.4283 24.9484 24.4317 24.4992C24.44 23.4184 24.4342 22.3367 24.4333 21.2559C24.4333 21.1442 24.4333 21.0317 24.4333 20.9025H20.8075V23.1284C21.26 23.1284 21.7033 23.1284 22.1475 23.1284C22.2925 23.1284 22.425 23.1334 22.5467 23.2542C22.6892 23.395 22.7442 23.5409 22.6908 23.7284C22.635 23.9275 22.49 24.0342 22.295 24.0734C22.225 24.0875 22.15 24.08 22.0775 24.08C19.4475 24.08 16.8175 24.0784 14.1875 24.0809C13.9933 24.0809 13.81 24.0734 13.6925 23.8959C13.6175 23.7825 13.485 23.6859 13.5667 23.5134C13.6525 23.3325 13.7342 23.1517 13.97 23.1367C14.0942 23.1292 14.2192 23.1292 14.3442 23.1292C14.7258 23.1284 15.1075 23.1292 15.5042 23.1292V20.905H11.9925C11.9925 21.025 11.9925 21.1359 11.9925 21.2475C11.9925 22.9734 11.9925 24.6984 11.9908 26.4242C11.9908 26.765 11.9708 27.1009 11.8492 27.4267C11.6033 28.0875 11.1725 28.5559 10.5142 28.83C10.1467 28.9834 9.77584 29.0517 9.38167 29.0509C7.12584 29.0467 4.87 29.0484 2.615 29.0475C2.10417 29.0475 1.61667 28.96 1.18667 28.6575C0.465837 28.1509 0.0625041 27.4825 0.0641708 26.5792C0.0691708 22.5359 0.0725041 18.4917 0.0616708 14.4484C0.0583375 13.3642 0.886671 12.3484 2.02167 12.1175C2.2225 12.0767 2.43584 12.0892 2.64334 12.0892C3.84917 12.0867 5.055 12.0875 6.26084 12.0875C6.37167 12.0875 6.48334 12.0875 6.62334 12.0875C6.62334 11.9409 6.62334 11.8292 6.62334 11.7175C6.62334 9.54503 6.63084 7.37253 6.6175 5.20003C6.61417 4.60837 6.7575 4.07753 7.13834 3.63337C7.49 3.2242 7.9475 2.97503 8.49667 2.92587C8.63084 2.91337 8.76667 2.91337 8.90167 2.91337C15.0658 2.91253 21.23 2.91337 27.3942 2.91003C28.0408 2.91003 28.6033 3.0967 29.0617 3.56753C29.4142 3.93003 29.5908 4.36837 29.6408 4.8617C29.6567 5.01587 29.65 5.17337 29.65 5.3292C29.65 8.40587 29.65 11.4834 29.65 14.56C29.65 14.6825 29.66 14.8042 29.6675 14.9692C29.8725 14.9692 30.055 14.9734 30.2383 14.9692C31.02 14.9475 31.64 15.4584 31.8833 16.1325C31.9167 16.225 31.9608 16.3142 32 16.405V24.9509V24.9517ZM11.9892 16.8884H24.3925C24.3925 16.7325 24.3633 16.5909 24.3975 16.4659C24.6583 15.4942 25.2742 14.9467 26.2817 14.9225C26.9883 14.9059 27.6958 14.92 28.4025 14.9184C28.4925 14.9184 28.5817 14.91 28.6942 14.905C28.6942 14.7909 28.6942 14.7 28.6942 14.6084C28.6942 11.4684 28.6942 8.3292 28.6942 5.1892C28.6942 5.14753 28.6975 5.10587 28.6942 5.0642C28.6417 4.5742 28.465 4.1592 27.9633 3.9842C27.7642 3.91503 27.5442 3.87587 27.3333 3.87587C21.21 3.87003 15.0867 3.87087 8.96334 3.87087C8.89084 3.87087 8.815 3.85837 8.74584 3.87337C8.55667 3.9142 8.34917 3.93003 8.18834 4.02337C7.80917 4.2417 7.6075 4.57837 7.60834 5.03587C7.6125 7.30253 7.60917 9.56837 7.61084 11.835C7.61084 11.9034 7.6275 11.9725 7.6375 12.0509C8.2375 12.0509 8.81917 12.0467 9.40084 12.0534C9.59584 12.0559 9.79417 12.07 9.98584 12.1042C10.5817 12.2125 11.075 12.4917 11.4583 12.9742C11.7975 13.4017 11.9717 13.885 11.9858 14.4184C12.005 15.135 11.9917 15.8525 11.9925 16.57C11.9925 16.6717 11.9925 16.7725 11.9925 16.8867L11.9892 16.8884ZM1.04417 20.5209H1.0425C1.0425 22.5059 1.0425 24.4909 1.04334 26.4759C1.04334 26.6625 1.0175 26.8634 1.07584 27.0325C1.27167 27.595 1.81167 28.0767 2.4625 28.0742C4.81167 28.0642 7.16 28.0784 9.50917 28.065C10.3992 28.06 11.0242 27.4559 11.0283 26.5442C11.0442 22.5634 11.04 18.5834 11.0333 14.6025C11.0333 14.3825 10.9883 14.1475 10.9025 13.9459C10.6475 13.3442 10.1508 13.0509 9.5175 13.0467C7.16834 13.0325 4.82 13.0392 2.47084 13.0425C2.22417 13.0425 1.98334 13.0975 1.77 13.23C1.27667 13.5375 1.03334 13.965 1.03834 14.5642C1.05334 16.5492 1.04417 18.5342 1.04417 20.5192V20.5209ZM25.3883 20.6159C25.3883 21.915 25.3867 23.2142 25.3892 24.5134C25.39 25.0642 25.7117 25.395 26.2633 25.3975C27.5517 25.4034 28.8408 25.3925 30.1292 25.4025C30.6442 25.4067 31.0208 24.9934 31.02 24.5042C31.0142 21.9375 31.02 19.37 31.0192 16.8034C31.0192 16.6917 31.0067 16.5734 30.9683 16.4692C30.8242 16.0809 30.5567 15.9067 30.1083 15.9042C29.4117 15.9 28.7158 15.9025 28.0192 15.9034C27.4267 15.9034 26.8342 15.9034 26.2417 15.9042C25.7108 15.9059 25.375 16.305 25.3825 16.7809C25.4017 18.0592 25.3892 19.3375 25.3883 20.6159ZM24.4158 17.905H12.0125V19.8925H24.4158V17.905ZM19.8183 20.9059H16.4917V23.1134H19.8183V20.9059Z" fill="#1B9AAA"/>
</g>
<defs>
<clipPath id="clip0_608_5997">
<rect width="32" height="32" fill="white"/>
</clipPath>
</defs>
</svg>
