<svg width="32" height="32" viewBox="0 0 32 32" fill="none" xmlns="http://www.w3.org/2000/svg">
<path fill-rule="evenodd" clip-rule="evenodd" d="M6.64651 3.25427C4.82061 3.25427 3.46956 4.85237 3.53003 6.58553C3.58807 8.25061 3.51268 10.4071 2.96976 12.1657C2.42522 13.9295 1.50427 15.0468 0 15.1903V16.8098C1.50427 16.9533 2.42522 18.0705 2.96976 19.8343C3.51268 21.593 3.58807 23.7495 3.53003 25.4145C3.46956 27.1474 4.82061 28.7458 6.64678 28.7458H25.3559C27.1818 28.7458 28.5326 27.1477 28.4721 25.4145C28.4141 23.7495 28.4895 21.593 29.0324 19.8343C29.5772 18.0705 30.4957 16.9533 32 16.8098V15.1903C30.4957 15.0468 29.5772 13.9295 29.0324 12.1657C28.4895 10.4074 28.4141 8.25061 28.4721 6.58553C28.5326 4.85265 27.1818 3.25427 25.3559 3.25427H6.64624H6.64651ZM21.6949 18.9459C21.6949 21.3324 19.9148 22.7797 16.9608 22.7797H11.9322C11.7884 22.7797 11.6504 22.7226 11.5487 22.6208C11.447 22.5191 11.3898 22.3812 11.3898 22.2373V9.76275C11.3898 9.6189 11.447 9.48095 11.5487 9.37923C11.6504 9.27752 11.7884 9.22037 11.9322 9.22037H16.9321C19.3953 9.22037 21.0118 10.5546 21.0118 12.6032C21.0118 14.041 19.9243 15.3283 18.5388 15.5537V15.6288C20.4249 15.8357 21.6949 17.1417 21.6949 18.9459ZM16.4125 10.9397H13.5452V14.9896H15.9601C17.827 14.9896 18.8564 14.2379 18.8564 12.8941C18.8564 11.635 17.9713 10.9397 16.4125 10.9397ZM13.5452 16.5966V21.0598H16.518C18.4616 21.0598 19.4913 20.2799 19.4913 18.8141C19.4913 17.3481 18.4328 16.5964 16.393 16.5964L13.5452 16.5966Z" fill="#1B9AAA"/>
</svg>
