<?xml version="1.0" encoding="UTF-8"?>
<svg id="Layer_1" data-name="Layer 1" xmlns="http://www.w3.org/2000/svg" viewBox="0 0 383.32 383.29">
  <path d="m383.32,203.62c-.98,7.15-1.56,14.37-3,21.42-14.99,73.41-57.92,122.89-128.23,148.44-21.18,7.7-43.35,10.28-65.87,9.74-1.59-.04-3.17-.15-5.44-.25.92-1.74,1.55-3.01,2.26-4.23,27.16-47.06,54.27-94.15,81.55-141.15,8.25-14.21,13.21-29.28,13.13-45.77-.12-23.4-8.43-43.53-24.64-60.41-.78-.81-1.57-1.6-2.35-2.41-.08-.09-.13-.21-.4-.65h122.87c2.32,9.58,5.02,19.51,7.04,29.57,1.49,7.41,2.09,14.99,3.08,22.5v23.21Z" fill="#1B9AAA"/>
  <path d="m203.63,0c7.14.98,14.35,1.63,21.42,2.98,61.63,11.75,106.96,45.76,136.92,100.63.23.42.37.89.79,1.94h-4.56c-54.39,0-108.78.5-163.16-.16-43.58-.53-77.84,28.53-86.89,65.26-.14.57-.37,1.13-.76,2.3-20.55-35.59-40.84-70.72-61.21-105.99,9.62-11.25,20.24-21.18,32.06-29.82C107.63,15.65,140.46,3.42,176.79.61c.97-.08,1.92-.4,2.88-.61,7.99,0,15.97,0,23.96,0Z" fill="#1B9AAA"/>
  <path d="m31.51,86.5c11.92,20.65,23.51,40.72,35.1,60.78,16.45,28.49,32.84,57.02,49.38,85.46,21.21,36.47,59.04,52.18,99.66,41.56.34-.09.71-.1,1.51-.21-.47,1.06-.77,1.91-1.21,2.67-19.31,33.46-38.66,66.9-57.89,100.41-1.31,2.27-2.57,2.76-5.02,2.28C77.1,364.49,15.62,301.3,2.9,224.92c-8.02-48.2.55-93.22,26.23-134.89.64-1.03,1.36-2.01,2.39-3.53Z" fill="#1B9AAA"/>
  <path d="m191.53,255.27c-35.17-.05-63.63-28.69-63.52-63.93.11-34.98,28.67-63.35,63.75-63.32,35.16.03,63.66,28.7,63.53,63.93-.13,34.99-28.7,63.37-63.75,63.33Z" fill="#1B9AAA"/>
</svg>