<svg width="32" height="32" viewBox="0 0 32 32" fill="none" xmlns="http://www.w3.org/2000/svg">
<path d="M26.3632 3.12329V29.0734H0.376083V3.12329H26.3632ZM26.1037 3.38279H0.635584V28.8139H26.1037V3.38279Z" fill="#1B9AAA"/>
<path d="M3.86144 19.8475C4.18215 19.8475 4.47312 19.788 4.73436 19.6691C4.9956 19.5501 5.2133 19.3818 5.38746 19.1641C5.56162 18.9464 5.67737 18.691 5.73471 18.3979L5.79638 18.0783H5.21656L5.15171 18.3948C5.08587 18.5965 4.99241 18.7659 4.87135 18.9029C4.75029 19.0399 4.60534 19.1434 4.43649 19.2135C4.26764 19.2836 4.07596 19.3186 3.86144 19.3186C3.55773 19.3186 3.29224 19.2422 3.06498 19.0893C2.83773 18.9363 2.66198 18.7213 2.53773 18.4441C2.41348 18.167 2.35136 17.8425 2.35136 17.4709V17.4677C2.35136 17.0939 2.41348 16.7694 2.53773 16.4944C2.66198 16.2194 2.8372 16.0059 3.06339 15.854C3.28959 15.7022 3.5556 15.6263 3.86144 15.6263C4.07808 15.6263 4.27135 15.6613 4.44126 15.7314C4.61118 15.8015 4.75507 15.9018 4.87295 16.0325C4.99082 16.1631 5.07949 16.3218 5.13896 16.5087L5.16126 16.5788H5.74109L5.73471 16.547C5.67737 16.256 5.56109 16.0022 5.38586 15.7856C5.21064 15.5689 4.99241 15.4001 4.73118 15.279C4.46994 15.1579 4.18003 15.0974 3.86144 15.0974C3.43454 15.0974 3.06392 15.1946 2.74959 15.3889C2.43525 15.5833 2.19207 15.8578 2.02003 16.2125C1.848 16.5671 1.76198 16.9855 1.76198 17.4677V17.4709C1.76198 17.953 1.848 18.3719 2.02003 18.7277C2.19207 19.0834 2.43578 19.359 2.75118 19.5544C3.06658 19.7498 3.43666 19.8475 3.86144 19.8475Z" fill="#1B9AAA"/>
<path d="M8.19071 19.8475C8.54115 19.8475 8.84328 19.7933 9.09708 19.685C9.35089 19.5767 9.54628 19.4227 9.68327 19.2231C9.82027 19.0234 9.88876 18.7877 9.88876 18.5158V18.5126C9.88876 18.1622 9.78363 17.8855 9.57336 17.6827C9.3631 17.4799 9.02221 17.3264 8.55071 17.2224L8.04098 17.1109C7.74151 17.045 7.52062 16.9516 7.37832 16.8305C7.23602 16.7094 7.16487 16.5555 7.16487 16.3686V16.3654C7.16487 16.2167 7.20682 16.0871 7.29071 15.9767C7.37461 15.8663 7.49301 15.7802 7.64593 15.7186C7.79885 15.6571 7.97726 15.6263 8.18115 15.6263C8.37655 15.6263 8.54806 15.656 8.69567 15.7155C8.84328 15.7749 8.96275 15.8599 9.05407 15.9703C9.1454 16.0808 9.20274 16.2146 9.22611 16.3717L9.23248 16.5276H9.80593L9.80274 16.3686C9.78575 16.1179 9.70664 15.8971 9.5654 15.7059C9.42416 15.5148 9.23566 15.3656 8.99991 15.2583C8.76416 15.151 8.49655 15.0974 8.19708 15.0974C7.88275 15.0974 7.60399 15.1521 7.3608 15.2615C7.11762 15.3709 6.927 15.5217 6.78894 15.7139C6.65089 15.9061 6.5808 16.1286 6.57868 16.3813V16.3845C6.57868 16.7201 6.68647 16.9914 6.90204 17.1985C7.11762 17.4055 7.44947 17.559 7.89761 17.6588L8.40735 17.7703C8.72381 17.8404 8.95213 17.936 9.0923 18.0571C9.23248 18.1781 9.30257 18.3395 9.30257 18.5413V18.5445C9.30257 18.7017 9.2585 18.8386 9.17036 18.9555C9.08221 19.0723 8.95744 19.162 8.79602 19.2247C8.6346 19.2873 8.44345 19.3186 8.22257 19.3186C8.00169 19.3186 7.80682 19.2884 7.63797 19.2278C7.46912 19.1673 7.33372 19.0813 7.23178 18.9698C7.12983 18.8583 7.06717 18.7261 7.04381 18.5732L7.03744 18.3061H6.46399L6.46718 18.5732C6.48629 18.8344 6.56965 19.0606 6.71726 19.2517C6.86487 19.4429 7.06452 19.59 7.3162 19.693C7.56788 19.796 7.85938 19.8475 8.19071 19.8475Z" fill="#1B9AAA"/>
<path d="M12.332 19.8475C12.6824 19.8475 12.9846 19.7933 13.2384 19.685C13.4922 19.5767 13.6876 19.4227 13.8246 19.2231C13.9616 19.0234 14.0301 18.7877 14.0301 18.5158V18.5126C14.0301 18.1622 13.9249 17.8855 13.7147 17.6827C13.5044 17.4799 13.1635 17.3264 12.692 17.2224L12.1823 17.1109C11.8828 17.045 11.6619 16.9516 11.5196 16.8305C11.3773 16.7094 11.3062 16.5555 11.3062 16.3686V16.3654C11.3062 16.2167 11.3481 16.0871 11.432 15.9767C11.5159 15.8663 11.6343 15.7802 11.7872 15.7186C11.9401 15.6571 12.1186 15.6263 12.3225 15.6263C12.5178 15.6263 12.6894 15.656 12.837 15.7155C12.9846 15.7749 13.104 15.8599 13.1954 15.9703C13.2867 16.0808 13.344 16.2146 13.3674 16.3717L13.3738 16.5276H13.9472L13.944 16.3686C13.927 16.1179 13.8479 15.8971 13.7067 15.7059C13.5655 15.5148 13.377 15.3656 13.1412 15.2583C12.9055 15.151 12.6378 15.0974 12.3384 15.0974C12.024 15.0974 11.7453 15.1521 11.5021 15.2615C11.2589 15.3709 11.0683 15.5217 10.9302 15.7139C10.7922 15.9061 10.7221 16.1286 10.72 16.3813V16.3845C10.72 16.7201 10.8278 16.9914 11.0433 17.1985C11.2589 17.4055 11.5908 17.559 12.0389 17.6588L12.5486 17.7703C12.8651 17.8404 13.0934 17.936 13.2336 18.0571C13.3738 18.1781 13.4439 18.3395 13.4439 18.5413V18.5445C13.4439 18.7017 13.3998 18.8386 13.3117 18.9555C13.2235 19.0723 13.0987 19.162 12.9373 19.2247C12.7759 19.2873 12.5848 19.3186 12.3639 19.3186C12.143 19.3186 11.9481 19.2884 11.7793 19.2278C11.6104 19.1673 11.475 19.0813 11.3731 18.9698C11.2711 18.8583 11.2085 18.7261 11.1851 18.5732L11.1787 18.3061H10.6053L10.6085 18.5732C10.6276 18.8344 10.7109 19.0606 10.8586 19.2517C11.0062 19.4429 11.2058 19.59 11.4575 19.693C11.7092 19.796 12.0007 19.8475 12.332 19.8475Z" fill="#1B9AAA"/>
<path d="M2.05161 27.556H2.58683V24.0038H2.84806L2.22683 23.0863L3.9634 27.556H4.44764L6.11007 23.0863L5.48883 24.0038H5.75007V27.556H6.28529V22.9589H5.51142L4.21508 26.8328H4.19596L2.86254 22.9589H2.05161V27.556Z" fill="#1B9AAA"/>
<path d="M9.19472 27.6325C9.63012 27.6325 10.0055 27.5359 10.3209 27.3426C10.6363 27.1493 10.88 26.8754 11.0521 26.5207C11.2241 26.166 11.3101 25.7454 11.3101 25.2591V25.2527C11.3101 24.7663 11.2241 24.3463 11.0521 23.9927C10.88 23.6391 10.6358 23.3656 10.3193 23.1724C10.0029 22.9791 9.62799 22.8824 9.19472 22.8824C8.76144 22.8824 8.38605 22.9791 8.06853 23.1724C7.751 23.3656 7.50569 23.6391 7.3326 23.9927C7.1595 24.3463 7.07295 24.7663 7.07295 25.2527V25.2591C7.07295 25.7454 7.15897 26.166 7.33101 26.5207C7.50304 26.8754 7.74782 27.1493 8.06534 27.3426C8.38286 27.5359 8.75932 27.6325 9.19472 27.6325ZM9.19472 27.1037C8.88038 27.1037 8.60852 27.0283 8.37914 26.8775C8.14976 26.7267 7.97242 26.5132 7.84711 26.2371C7.7218 25.961 7.65915 25.635 7.65915 25.2591V25.2527C7.65915 24.8747 7.7218 24.5481 7.84711 24.2731C7.97242 23.998 8.1503 23.7856 8.38074 23.6359C8.61118 23.4862 8.88251 23.4113 9.19472 23.4113C9.50693 23.4113 9.77773 23.4862 10.0071 23.6359C10.2365 23.7856 10.4133 23.9986 10.5375 24.2747C10.6618 24.5508 10.7239 24.8768 10.7239 25.2527V25.2591C10.7239 25.6329 10.6623 25.9578 10.5391 26.2339C10.416 26.51 10.2402 26.724 10.0119 26.8759C9.78357 27.0277 9.51118 27.1037 9.19472 27.1037Z" fill="#1B9AAA"/>
<path d="M12.1348 27.556H13.68C14.1366 27.556 14.5263 27.4652 14.8492 27.2836C15.172 27.102 15.4194 26.8392 15.5915 26.4951C15.7635 26.1511 15.8495 25.738 15.8495 25.2558V25.2495C15.8495 24.7674 15.763 24.3559 15.5899 24.015C15.4168 23.6741 15.1688 23.4128 14.846 23.2313C14.5232 23.0497 14.1345 22.9589 13.68 22.9589H12.1348V27.556ZM12.7083 27.0399V23.475H13.6417C13.9901 23.475 14.2847 23.5435 14.5258 23.6805C14.7669 23.8174 14.9501 24.0187 15.0754 24.2842C15.2007 24.5497 15.2633 24.8735 15.2633 25.2558V25.2622C15.2633 25.6424 15.2007 25.9647 15.0754 26.2291C14.9501 26.4935 14.7669 26.6948 14.5258 26.8328C14.2847 26.9709 13.9901 27.0399 13.6417 27.0399H12.7083Z" fill="#1B9AAA"/>
<path d="M18.3917 27.6325C18.7719 27.6325 19.0979 27.5613 19.3698 27.419C19.6416 27.2767 19.8503 27.0787 19.9958 26.8249C20.1413 26.5711 20.214 26.2774 20.214 25.944V22.9589H19.6406V25.9058C19.6406 26.2583 19.5322 26.5461 19.3156 26.7691C19.099 26.9921 18.791 27.1036 18.3917 27.1036C17.9946 27.1036 17.6861 26.9921 17.4662 26.7691C17.2464 26.5461 17.1365 26.2583 17.1365 25.9058V22.9589H16.563V25.944C16.563 26.2774 16.6363 26.5711 16.7829 26.8249C16.9294 27.0787 17.1392 27.2767 17.4121 27.419C17.685 27.5613 18.0115 27.6325 18.3917 27.6325Z" fill="#1B9AAA"/>
<path d="M21.0318 27.556H23.8226V27.0399H21.6052V22.9589H21.0318V27.556Z" fill="#1B9AAA"/>
<path d="M24.5274 27.556H27.7833V27.0399H25.1009V25.4597H27.5172V24.95H25.1009V23.475H27.7092V22.9589H24.5274V27.556Z" fill="#1B9AAA"/>
<path d="M30.2273 27.6325C30.5778 27.6325 30.8799 27.5784 31.1337 27.47C31.3875 27.3617 31.5829 27.2077 31.7199 27.0081C31.8569 26.8085 31.9254 26.5727 31.9254 26.3008V26.2977C31.9254 25.9472 31.8203 25.6706 31.61 25.4678C31.3997 25.2649 31.0588 25.1115 30.5873 25.0074L30.0776 24.8959C29.7781 24.8301 29.5572 24.7366 29.4149 24.6155C29.2726 24.4945 29.2015 24.3405 29.2015 24.1536V24.1504C29.2015 24.0017 29.2434 23.8722 29.3273 23.7617C29.4112 23.6513 29.5296 23.5653 29.6826 23.5037C29.8355 23.4421 30.0139 23.4113 30.2178 23.4113C30.4132 23.4113 30.5847 23.441 30.7323 23.5005C30.8799 23.56 30.9994 23.6449 31.0907 23.7554C31.182 23.8658 31.2394 23.9996 31.2627 24.1568L31.2691 24.3126H31.8426L31.8394 24.1536C31.8224 23.903 31.7433 23.6821 31.602 23.4909C31.4608 23.2998 31.2723 23.1506 31.0365 23.0433C30.8008 22.9361 30.5332 22.8824 30.2337 22.8824C29.9194 22.8824 29.6406 22.9371 29.3974 23.0465C29.1542 23.1559 28.9636 23.3067 28.8256 23.4989C28.6875 23.6911 28.6174 23.9136 28.6153 24.1663V24.1695C28.6153 24.5051 28.7231 24.7764 28.9387 24.9835C29.1542 25.1906 29.4861 25.344 29.9342 25.4439L30.444 25.5554C30.7604 25.6254 30.9887 25.721 31.1289 25.8421C31.2691 25.9631 31.3392 26.1246 31.3392 26.3263V26.3295C31.3392 26.4867 31.2951 26.6237 31.207 26.7405C31.1188 26.8573 30.9941 26.947 30.8326 27.0097C30.6712 27.0723 30.4801 27.1037 30.2592 27.1037C30.0383 27.1037 29.8434 27.0734 29.6746 27.0129C29.5057 26.9523 29.3703 26.8663 29.2684 26.7548C29.1664 26.6433 29.1038 26.5111 29.0804 26.3582L29.0741 26.0541H28.5006L28.5038 26.3582C28.5229 26.6194 28.6063 26.8456 28.7539 27.0368C28.9015 27.2279 29.1011 27.375 29.3528 27.478C29.6045 27.581 29.896 27.6325 30.2273 27.6325Z" fill="#1B9AAA"/>
</svg>
