<svg width="32" height="32" viewBox="0 0 32 32" fill="none" xmlns="http://www.w3.org/2000/svg">
<g clip-path="url(#clip0_61_536)">
<path fill-rule="evenodd" clip-rule="evenodd" d="M4 0C1.79086 0 0 1.79086 0 4V28C0 30.2091 1.79086 32 4 32H28C30.2091 32 32 30.2091 32 28V4C32 1.79086 30.2091 0 28 0H4ZM7.85937 10H24.1375C24.1186 10.0205 24.1023 10.0385 24.0877 10.0547L24.0876 10.0548L24.0874 10.0551C24.0612 10.084 24.0402 10.1073 24.0182 10.1293C21.7904 12.3461 19.5626 14.5629 17.3338 16.7787C16.7805 17.3286 16.1283 17.5248 15.3857 17.2502C15.1385 17.1588 14.8943 17.0015 14.7065 16.8162C12.8302 14.963 10.9615 13.1027 9.09258 11.2423L9.09241 11.2421L9.09224 11.2419L9.09171 11.2414L7.9183 10.0734C7.90878 10.0642 7.90077 10.0537 7.88691 10.0356C7.87967 10.0261 7.87084 10.0146 7.85937 10ZM12.9911 16.7867C13.0905 16.8883 13.1855 16.9866 13.2779 17.0823C13.474 17.2852 13.6585 17.4761 13.8486 17.6611C14.9807 18.7627 16.5927 18.8796 17.8192 17.9422C18.0049 17.8004 18.1721 17.633 18.3386 17.4663L18.3386 17.4663C18.379 17.4259 18.4194 17.3855 18.46 17.3455C18.5758 17.2317 18.6865 17.1128 18.8202 16.9694L18.8203 16.9692C18.8831 16.9018 18.951 16.829 19.0268 16.7487L21.4753 19.2798L24.0481 21.9394H7.9373L12.9911 16.7867ZM7 21.1244L12.0239 16.0062C10.3654 14.3217 8.67895 12.6083 7 10.9019V21.1244ZM25 10.8919V21.1055L21.4744 17.602L19.8817 16.0192L24.9565 10.8635L25 10.8919Z" fill="#1B9AAA"/>
</g>
<defs>
<clipPath id="clip0_61_536">
<rect width="32" height="32" fill="white"/>
</clipPath>
</defs>
</svg>
