<svg width="32" height="32" viewBox="0 0 32 32" fill="none" xmlns="http://www.w3.org/2000/svg">
<g clip-path="url(#clip0_606_5482)">
<path d="M22.2029 12.1758L16.1251 8.66682C15.9731 8.579 15.7856 8.579 15.6335 8.66682L9.55568 12.1758C9.40369 12.2636 9.30981 12.4259 9.30981 12.6015V19.6194C9.30981 19.795 9.40369 19.9574 9.55568 20.0454L15.6335 23.5543C15.7856 23.6421 15.9731 23.6421 16.1251 23.5543L22.2029 20.0454C22.355 19.9575 22.4487 19.7951 22.4487 19.6194V12.6015C22.4485 12.4259 22.3548 12.2636 22.2029 12.1758Z" fill="#1B9AAA"/>
<path d="M0.0772765 15.3722L7.33897 2.73891C7.60277 2.28213 8.09003 1.94519 8.61748 1.94519H23.1411C23.6687 1.94519 24.156 2.28213 24.4198 2.73891L31.6815 15.3443C31.9453 15.8013 31.9453 16.3779 31.6815 16.8348L24.4198 29.3645C24.156 29.8213 23.6687 30.0549 23.1411 30.0549H8.61757C8.09013 30.0549 7.60277 29.8283 7.33912 29.3715L0.0774021 16.8212C-0.186628 16.3646 -0.186628 15.829 0.0772765 15.3722ZM6.09037 21.4471C6.09037 21.6329 6.20218 21.8047 6.36318 21.8977L15.613 27.2343C15.7738 27.3272 15.9754 27.3272 16.1363 27.2343L25.3932 21.8977C25.5542 21.8047 25.6667 21.633 25.6667 21.4471V10.7736C25.6667 10.5878 25.5558 10.4161 25.3948 10.3231L16.1453 4.98643C15.9844 4.89344 15.7832 4.89344 15.6223 4.98643L6.36468 10.3231C6.20368 10.4161 6.09037 10.5878 6.09037 10.7736V21.4471Z" fill="#1B9AAA"/>
</g>
<defs>
<clipPath id="clip0_606_5482">
<rect width="32" height="32" fill="white"/>
</clipPath>
</defs>
</svg>
