<svg width="32" height="32" viewBox="0 0 32 32" fill="none" xmlns="http://www.w3.org/2000/svg">
<g clip-path="url(#clip0_21_441)">
<path d="M10.6677 32C13.6111 32 16 29.6107 16 26.6667V21.3334H10.6677C7.7243 21.3334 5.33545 23.7227 5.33545 26.6667C5.33545 29.6107 7.7243 32 10.6677 32Z" fill="#1B9AAA"/>
<path d="M5.33545 16C5.33545 13.056 7.7243 10.6666 10.6677 10.6666H16V21.3333H10.6677C7.7243 21.3333 5.33545 18.944 5.33545 16Z" fill="#1B9AAA"/>
<path d="M5.33545 5.33333C5.33545 2.38933 7.7243 0 10.6677 0H16V10.6667H10.6677C7.7243 10.6667 5.33545 8.27733 5.33545 5.33333Z" fill="#1B9AAA"/>
<path d="M16 0H21.3323C24.2757 0 26.6645 2.38933 26.6645 5.33333C26.6645 8.27733 24.2757 10.6667 21.3323 10.6667H16V0Z" fill="#1B9AAA"/>
<path d="M26.6645 16C26.6645 18.944 24.2757 21.3333 21.3323 21.3333C18.3889 21.3333 16 18.944 16 16C16 13.056 18.3889 10.6666 21.3323 10.6666C24.2757 10.6666 26.6645 13.056 26.6645 16Z" fill="#1B9AAA"/>
</g>
<defs>
<clipPath id="clip0_21_441">
<rect width="32" height="32" fill="white"/>
</clipPath>
</defs>
</svg>
