<svg width="32" height="32" viewBox="0 0 32 32" fill="none" xmlns="http://www.w3.org/2000/svg">
<g clip-path="url(#clip0_21_372)">
<path d="M30.5847 14.65L17.3496 1.41554C16.5875 0.653152 15.3514 0.653152 14.5887 1.41554L11.8407 4.16425L15.3267 7.65027C16.1369 7.37645 17.0659 7.5602 17.7115 8.20614C18.3611 8.85604 18.5432 9.79295 18.2624 10.6061L21.6228 13.9661C22.436 13.6857 23.3735 13.8672 24.0228 14.5174C24.93 15.4246 24.93 16.8946 24.0228 17.8025C23.1149 18.7101 21.6449 18.7101 20.7367 17.8025C20.0544 17.1196 19.8855 16.1167 20.2316 15.2762L17.0976 12.1425V20.3889C17.3186 20.4984 17.5274 20.6442 17.7115 20.8283C18.6187 21.7355 18.6187 23.2056 17.7115 24.1138C16.8043 25.0207 15.3333 25.0207 14.4267 24.1138C13.5195 23.2052 13.5195 21.7352 14.4267 20.8283C14.6511 20.6043 14.9107 20.4348 15.1878 20.3213V11.998C14.9107 11.8845 14.6517 11.7166 14.4267 11.4909C13.7395 10.8041 13.5743 9.79526 13.9266 8.95138L10.4901 5.51418L1.4146 14.5887C0.652206 15.3517 0.652206 16.5878 1.4146 17.3502L14.6504 30.585C15.4125 31.3474 16.6482 31.3474 17.4113 30.585L30.5847 17.4116C31.3471 16.6492 31.3471 15.4124 30.5847 14.65Z" fill="#1B9AAA"/>
</g>
<defs>
<clipPath id="clip0_21_372">
<rect width="32" height="32" fill="white"/>
</clipPath>
</defs>
</svg>
