<svg width="32" height="32" viewBox="0 0 32 32" fill="none" xmlns="http://www.w3.org/2000/svg">
<path d="M17.964 31.9321C17.547 31.8591 17.115 31.6611 16.87 31.4421C16.703 31.2701 16.61 31.0361 16.604 30.7961C16.604 30.5511 16.729 30.2071 16.927 29.8641C17.047 29.6711 17.141 29.4631 17.208 29.2441C17.25 29.0931 17.338 28.8481 17.406 28.6921L17.526 28.4061L17.557 26.4951C17.573 25.4381 17.604 24.4591 17.63 24.3071C17.698 23.8691 17.812 23.4421 17.963 23.0261L18.078 22.7501L17.911 22.6511C17.76 22.5571 17.635 22.4271 17.14 21.8381C16.531 21.1191 15.729 20.7231 14.593 20.5881C14.223 20.5521 13.848 20.5251 13.473 20.5101C11.806 20.4321 10.853 20.0831 9.99401 19.2391C9.35301 18.6091 9.02001 17.8741 8.88501 16.7911C8.70301 15.3271 8.50001 14.5771 8.12501 13.9681C8.03101 13.8171 7.92701 13.6761 7.80701 13.5461L7.65601 13.3951L7.32301 13.6091C7.14101 13.7291 6.88501 13.8801 6.76001 13.9481C6.34301 14.1771 5.94701 14.4321 5.56701 14.7081C4.63501 15.3851 3.61901 16.2341 3.06201 16.7911C2.81201 17.0411 2.68201 17.1501 2.62401 17.1401C2.24401 17.0831 2.53501 15.4371 3.15501 14.1971C3.94701 12.5981 5.28001 11.1241 6.82201 10.1291C8.08801 9.31106 10.135 8.18606 11.082 7.79006C12.764 7.08706 14.941 6.32606 16.431 5.92006C16.744 5.83106 16.936 5.75306 17.066 5.66506C17.358 5.46206 17.644 5.36306 17.972 5.35806C18.248 5.35306 18.274 5.34806 18.54 5.17006C18.853 4.96706 18.946 4.95606 19.259 5.06606L19.462 5.13906L19.712 4.96706L19.962 4.80006L20.321 4.80506C20.597 4.81006 20.722 4.80006 20.842 4.74806C20.993 4.68006 20.998 4.67006 21.04 4.42006C21.134 3.87806 21.144 3.60706 21.087 3.27906C21.014 2.84706 21.004 1.17006 21.077 0.841058C21.155 0.487058 21.207 0.414058 21.473 0.284058C21.869 0.0910576 22.166 0.0340576 22.848 0.0340576C23.681 0.0340576 24.103 0.149058 24.416 0.451058C24.697 0.722058 24.744 1.35706 24.598 2.84706C24.509 3.70606 24.499 3.94606 24.525 4.50806C24.535 4.86706 24.561 5.20606 24.572 5.25306C24.593 5.34206 24.614 5.34706 24.916 5.35206C25.213 5.35706 25.265 5.37306 25.546 5.51906C25.817 5.66006 26.02 5.83206 26.062 5.95706C26.067 5.98306 26.114 5.98306 26.197 5.95706C26.358 5.91006 26.499 5.96206 26.614 6.10306C26.682 6.19206 26.723 6.20706 26.88 6.20706C27.094 6.20706 27.172 6.25906 27.349 6.52006C27.432 6.64006 27.547 6.72806 27.677 6.78606C27.969 6.93206 28.365 7.33806 28.516 7.66106C28.75 8.14006 28.797 8.69706 28.651 9.19706C28.599 9.38506 28.599 9.39006 28.708 9.57206C28.937 9.96306 29.021 10.4421 28.927 10.8481L28.875 11.0881L29.031 11.2441C29.807 12.0201 29.692 13.2861 28.745 14.4161C28.646 14.5361 28.526 14.7231 28.479 14.8381C28.297 15.3221 28.088 15.6611 27.818 15.9421L27.542 16.2231H27.261C26.98 16.2231 26.584 16.1291 26.344 16.0041C26.245 15.9521 26.24 15.9521 26.261 16.0141C26.324 16.2431 26.48 17.1751 26.532 17.6911C26.615 18.4831 26.589 19.6341 26.48 20.1291C26.402 20.4941 26.266 20.8481 26.084 21.1761C25.98 21.3431 25.975 21.3791 25.995 21.5821C26.026 21.8681 25.959 22.3481 25.844 22.6651C25.703 23.0351 25.651 23.2071 25.62 23.3941C25.594 23.5551 25.594 23.5551 25.709 23.5551C25.86 23.5551 25.943 23.6441 25.943 23.8211C25.943 23.8991 25.875 24.3211 25.792 24.7531C25.563 25.9671 25.547 26.1021 25.547 27.2791C25.542 28.4931 25.542 28.4821 25.818 28.6641L26.438 29.0651C26.969 29.4191 27.542 29.7111 28.141 29.9401C29.011 30.2841 29.131 30.3721 29.131 30.6641C29.131 30.7941 29.105 30.8411 28.996 30.9451C28.663 31.2681 28.006 31.3411 26.683 31.2001C25.995 31.1371 25.303 31.1011 24.615 31.1011C22.792 31.0751 22.526 31.0121 22.287 30.5591C22.152 30.2991 22.178 29.9601 22.365 29.4031C22.448 29.1581 22.521 28.9081 22.584 28.6531C22.709 28.0491 22.626 27.3301 22.334 26.5181L22.084 25.8251C21.839 25.1221 21.704 23.8351 21.85 23.5441C21.876 23.4871 21.923 23.4761 22.048 23.4811L22.204 23.4971L22.334 23.2261C22.433 23.0121 22.542 22.8721 22.839 22.5751L23.219 22.1951L23.198 21.9501C23.182 21.7161 22.875 20.5801 22.833 20.5851C22.817 20.5851 22.734 20.7001 22.64 20.8451C22.411 21.1891 21.906 21.7201 21.619 21.9131C21.494 21.9961 21.39 22.0951 21.39 22.1271C21.385 22.2681 21.265 22.5441 21.119 22.7361C20.978 22.9241 20.968 22.9551 20.989 23.1211C21.025 23.3661 20.947 24.1521 20.854 24.5641C20.771 24.8661 20.656 25.1631 20.51 25.4491C20.151 26.1941 19.88 26.8601 19.812 27.1681C19.76 27.4651 19.734 27.7671 19.718 28.0641C19.702 28.4181 19.666 28.7621 19.64 28.8351C19.604 28.9341 19.604 29.0121 19.635 29.1631C19.661 29.2721 19.677 29.5171 19.671 29.7101C19.666 29.9761 19.687 30.1481 19.765 30.4601C19.9 30.9911 19.926 31.3251 19.864 31.5231C19.822 31.6481 19.781 31.6951 19.64 31.7631C19.327 31.9241 18.442 32.0131 17.963 31.9301L17.964 31.9321ZM19.229 31.5051C19.411 31.4531 19.568 31.2971 19.568 31.1561C19.568 31.0931 19.516 30.9111 19.453 30.7501C19.328 30.4431 19.114 29.6301 19.114 29.4951C19.114 29.4271 19.119 29.4221 19.223 29.4791L19.338 29.5421V29.3961C19.322 29.2611 19.291 29.1301 19.249 29.0001C19.15 28.7031 19.14 28.6981 18.509 28.6611L18.082 28.6401L17.926 28.7911C17.843 28.8801 17.765 28.9731 17.702 29.0831C17.634 29.2181 17.608 29.4221 17.65 29.4681C17.66 29.4841 17.765 29.4681 17.879 29.4421C17.947 29.4211 18.014 29.4111 18.087 29.4061C18.087 29.4111 17.972 29.5051 17.827 29.6041C17.202 30.0731 16.983 30.3591 16.983 30.7241C16.983 31.1041 17.342 31.4011 17.905 31.4901C18.29 31.5471 19.04 31.5631 19.228 31.5061L19.229 31.5051ZM27.703 30.8851C27.859 30.6971 27.838 30.5051 27.64 30.2861C27.525 30.1711 27.395 30.0721 27.249 29.9941C27.103 29.9161 26.957 29.8271 26.811 29.7341C26.696 29.6511 26.332 29.4371 25.998 29.2551C25.758 29.1251 25.524 28.9891 25.295 28.8441L25.201 28.7711V27.3391C25.201 25.9281 25.196 25.9071 25.123 25.9281C24.758 26.0271 24.154 26.0741 23.389 26.0581L22.561 26.0481L22.681 26.3401C22.905 26.8921 23.02 27.6321 23.02 28.4811C23.02 28.7991 22.999 28.9131 22.921 29.1371C22.879 29.2461 22.843 29.3561 22.806 29.4651C22.79 29.5121 22.848 29.5481 23.061 29.6111C23.217 29.6581 23.446 29.7051 23.577 29.7201L23.817 29.7461L23.791 29.9861C23.765 30.2571 23.796 30.5431 23.864 30.6321C23.906 30.6841 24.062 30.7051 24.786 30.7361C25.333 30.7621 25.927 30.8191 26.395 30.8871C26.801 30.9501 27.239 31.0021 27.369 31.0021C27.588 31.0071 27.609 30.9971 27.702 30.8871L27.703 30.8851ZM19.365 28.4481C19.386 28.4321 19.417 28.1511 19.428 27.8181C19.47 26.8861 19.506 26.7501 19.975 25.6981C20.36 24.8391 20.564 24.0371 20.548 23.4691L20.538 23.1301L20.392 23.2711C20.09 23.5731 20.298 23.0991 20.658 22.6771C20.929 22.3541 21.023 22.1771 21.064 21.8911C21.085 21.7761 21.127 21.7191 21.304 21.5841C21.976 21.0741 22.46 20.4281 22.778 19.6361C22.851 19.4481 23.038 18.8081 23.195 18.2141C23.487 17.1151 23.643 16.6411 23.784 16.4381C23.836 16.3601 23.857 16.3441 23.847 16.3961C23.764 16.7091 23.738 16.8391 23.67 17.2451C23.628 17.5001 23.55 18.0001 23.498 18.3491C23.399 19.0631 23.295 19.5211 23.154 19.8751L23.06 20.1151L23.31 20.7611C23.57 21.4221 23.69 21.9021 23.711 22.3651L23.727 22.6251L23.524 22.6671C23.253 22.7141 23.019 22.8651 22.857 23.0841C22.68 23.3391 22.581 23.5481 22.628 23.5941C22.649 23.6151 22.904 23.6621 23.196 23.6981C23.649 23.7501 23.821 23.7501 24.42 23.7141C24.68 23.7041 24.936 23.6781 25.191 23.6411C25.248 23.6201 25.306 23.5061 25.399 23.2091C25.613 22.5271 25.654 22.2871 25.628 21.8081L25.607 21.3861L25.716 21.2451C25.971 20.9221 26.169 20.3391 26.252 19.6561C26.351 18.8231 26.169 17.0781 25.83 15.5781C25.669 14.8641 25.601 14.4371 25.601 14.1251V13.8491L25.346 13.8751C24.429 13.9741 23.32 13.9481 22.643 13.8071C22.273 13.7341 21.341 13.4581 21.138 13.3691L20.977 13.2961L20.956 13.4781C20.94 13.5771 20.925 13.6761 20.904 13.7801C20.873 13.8891 20.883 13.9151 21.076 14.1031C21.316 14.3481 21.389 14.4731 21.389 14.6391C21.389 14.7431 21.332 14.8271 21.04 15.1291C20.826 15.3531 20.556 15.5931 20.347 15.7281L20.008 15.9571L19.862 16.4621C19.341 18.3111 19.242 19.9931 19.586 21.1961L19.669 21.4981L19.502 21.7061C18.877 22.4921 18.507 23.0911 18.45 23.4251C18.44 23.4931 18.387 23.7111 18.335 23.9151C18.2 24.4311 18.095 25.1861 18.049 26.0041C18.018 26.6861 17.971 27.3741 17.914 28.0561L17.888 28.2591L18.148 28.3371C18.294 28.3841 18.513 28.4361 18.638 28.4571C18.872 28.4931 19.305 28.4831 19.372 28.4471L19.365 28.4481ZM24.422 25.5831C24.828 25.5571 25.198 25.4941 25.271 25.4321C25.302 25.4111 25.339 25.3021 25.349 25.1921L25.375 24.9941L25.052 25.0671C24.797 25.1191 24.542 25.1501 24.286 25.1711C23.671 25.1971 23.052 25.1811 22.442 25.1191C22.239 25.0881 22.239 25.0881 22.301 25.3531C22.353 25.5511 22.364 25.5611 22.895 25.5981C23.249 25.6291 23.744 25.6241 24.421 25.5821L24.422 25.5831ZM24.083 24.6771C24.614 24.6301 25.276 24.5161 25.406 24.4481C25.448 24.4271 25.484 24.3491 25.5 24.2601L25.547 23.9841L25.573 23.8541L25.443 23.8801C24.865 24.0001 24.427 24.0361 23.552 24.0361C22.698 24.0361 22.599 24.0311 22.375 23.9531C22.292 23.9171 22.198 23.8961 22.104 23.8901C22.068 23.9111 22.062 24.2081 22.094 24.4161C22.115 24.5411 22.136 24.5621 22.261 24.5981C22.657 24.7071 23.324 24.7331 24.084 24.6711L24.083 24.6771ZM14.417 19.9791C15.75 19.5941 17.495 18.4631 18.922 17.0471C19.386 16.5831 19.443 16.5211 19.505 16.3131L19.588 16.0471C19.598 16.0261 19.515 15.9901 19.406 15.9641C19.12 15.8961 18.901 15.7301 18.901 15.5791C18.901 15.4901 18.849 15.4021 18.698 15.2401C18.453 14.9641 18.391 14.8441 18.365 14.5791L18.344 14.3651L18.052 14.1571C17.885 14.0371 17.302 13.7141 16.682 13.4021C16.213 13.1731 15.75 12.9231 15.297 12.6521C14.776 12.3031 14.427 11.8861 14.229 11.3921C14.193 11.2931 14.146 11.2101 14.13 11.2101C14.088 11.2101 12.916 12.3401 12.416 12.8711C11.182 14.1731 10.333 15.3031 9.79601 16.3501C9.66101 16.6101 9.51501 16.9181 9.47301 17.0321L9.39501 17.2401L9.48901 17.5891C9.54601 17.7771 9.66601 18.0841 9.76001 18.2661C10.088 18.9121 10.479 19.3021 11.125 19.6201C11.818 19.9641 12.432 20.0841 13.458 20.0681C14.01 20.0631 14.172 20.0471 14.416 19.9741L14.417 19.9791ZM3.89601 15.4111C4.77101 14.6351 5.97901 13.7861 7.45901 12.9061C8.42801 12.3281 12.173 10.4531 13.897 9.68706C14.21 9.54606 14.491 9.41606 14.522 9.40106C14.553 9.38006 14.642 9.15606 14.725 8.90606C15.09 7.75006 15.272 7.52106 15.933 7.37006C16.016 7.34906 16.037 7.32306 16.037 7.24006C16.037 7.08906 16.141 6.74006 16.23 6.58406C16.298 6.46406 16.298 6.45906 16.24 6.47506C16.204 6.48506 15.985 6.54806 15.756 6.61606C12.579 7.53306 9.80301 8.75106 7.40701 10.2721C4.85001 11.8971 3.37601 13.8451 2.94901 16.1781L2.91801 16.3501L3.23101 16.0431C3.39801 15.8711 3.70001 15.5901 3.89801 15.4181L3.89601 15.4111ZM27.464 15.8541C27.719 15.7241 28.115 15.1251 28.261 14.6511C28.303 14.4841 28.386 14.3281 28.506 14.1981C28.891 13.7711 29.209 12.9951 29.214 12.4641C29.214 11.6361 28.745 11.3181 28.063 11.6721C27.974 11.7141 27.902 11.7451 27.891 11.7351C27.855 11.6991 28.047 11.5111 28.282 11.3651C28.589 11.1621 28.647 11.0421 28.647 10.6101C28.647 10.2451 28.558 9.95406 28.35 9.63106C28.256 9.49006 28.22 9.39706 28.235 9.33906L28.329 8.99006C28.459 8.52606 28.412 7.99506 28.209 7.65706C27.907 7.14706 27.537 6.89706 27.021 6.85506L26.719 6.83406L26.896 7.03206C27.422 7.60006 27.677 8.31306 27.573 8.92306C27.521 9.23606 27.474 9.29806 27.172 9.41806L26.995 9.49106L27.016 9.73106C27.052 10.1221 26.985 10.4081 26.735 10.9341C26.61 11.2001 26.516 11.4391 26.527 11.4651C26.558 11.5541 26.902 11.7201 27.173 11.7881L27.439 11.8511L27.272 11.9081C27.053 11.9761 27.006 12.0751 27.006 12.4341C27.006 12.7621 27.053 12.8981 27.292 13.2571C27.401 13.4131 27.474 13.5751 27.485 13.6681C27.506 13.8141 27.501 13.8241 27.381 13.8661C27.246 13.9021 27.105 13.9291 26.964 13.9341C26.474 13.9651 26.438 13.9811 26.219 14.1891C26.021 14.3771 26.016 14.3871 26.016 14.5951C26.016 14.8811 26.125 15.4601 26.193 15.5381C26.282 15.6321 26.776 15.8771 26.969 15.9131C27.136 15.9551 27.313 15.9341 27.464 15.8561V15.8541ZM20.25 15.4641C20.568 15.2141 20.818 14.9641 20.958 14.7501C21.047 14.6201 21.052 14.5941 21.01 14.4841C20.937 14.3171 20.458 13.8851 20.192 13.7551C20.015 13.6771 19.827 13.6201 19.635 13.5941L19.307 13.5521L19.104 13.2971C18.682 12.7761 18.448 12.3701 18.114 11.5831C17.822 10.9161 17.567 10.5261 17.161 10.1401C16.994 9.98406 16.875 9.85406 16.885 9.85406C16.906 9.85406 17.104 9.95306 17.333 10.0731C17.713 10.2761 17.76 10.2921 17.932 10.2661C18.552 10.1931 19.099 9.48006 19.297 8.48006C19.354 8.19906 19.469 7.91206 19.589 7.74006C19.594 7.73506 19.834 7.89106 20.115 8.09406C20.829 8.59906 20.985 8.67706 21.391 8.69306C21.657 8.70306 21.808 8.68306 22.287 8.56806C23.308 8.31806 24.412 8.21906 25.084 8.30806C25.464 8.36006 26.011 8.52706 26.417 8.71906C26.818 8.90706 26.896 8.91706 27.026 8.80206C27.135 8.70806 27.135 8.69306 27.135 8.34406C27.13 7.82806 26.942 7.27106 26.656 6.93806C26.51 6.76606 26.099 6.48506 25.692 6.27106C25.546 6.19306 25.4 6.11506 25.26 6.03706C25.067 5.92206 24.849 5.93806 24.255 6.09406C23.567 6.27106 23.385 6.27106 22.599 6.06806C21.932 5.90106 21.891 5.89606 21.234 6.00006C20.885 6.05206 20.01 6.02106 19.718 5.94306C19.572 5.90106 19.426 5.86006 19.286 5.80806C19.031 5.70906 18.588 5.69306 18.187 5.76606C17.39 5.90706 16.786 6.33906 16.567 6.92706C16.452 7.22406 16.468 7.36506 16.619 7.45806C16.859 7.60906 17.176 8.02106 17.176 8.18206C17.176 8.19206 17.098 8.12506 17.009 8.03106C16.785 7.79706 16.582 7.69206 16.342 7.69206C16.024 7.70206 15.738 7.89006 15.608 8.17606C15.54 8.35806 15.478 8.54606 15.431 8.73906C15.285 9.27006 15.155 9.55206 14.879 9.92706C14.634 10.2661 14.598 10.4171 14.686 10.7971C14.905 11.7551 15.285 12.1411 16.873 13.0421C17.706 13.5161 18.133 13.7821 18.446 14.0161C18.686 14.1931 18.691 14.2041 18.67 14.3391C18.623 14.6521 18.821 14.9901 19.212 15.2661C19.311 15.3341 19.373 15.4071 19.373 15.4591C19.373 15.5531 19.639 15.6831 19.831 15.6831C19.94 15.6831 20.024 15.6361 20.248 15.4641H20.25ZM26.672 13.7081C27.276 13.7291 27.307 13.6821 26.985 13.3071C26.646 12.9161 26.553 12.5991 26.678 12.2501L26.73 12.1151L26.516 12.0111C26.443 11.9751 26.37 11.9381 26.297 11.9121C26.261 12.0531 26.224 12.1881 26.193 12.3291C26.115 12.6471 26.021 13.4701 26.016 13.8191C26.016 13.8501 26.068 13.8401 26.157 13.7831C26.282 13.7101 26.345 13.7001 26.673 13.7101L26.672 13.7081ZM24.646 13.6771C25.011 13.6561 25.386 13.6301 25.485 13.6141L25.667 13.5881L25.688 12.9891C25.719 12.1351 25.844 11.6301 26.214 10.8221C26.474 10.2491 26.589 9.74906 26.532 9.37406C26.511 9.21306 26.501 9.20206 26.282 9.10806C25.881 8.94706 25.464 8.83706 25.037 8.76906C24.626 8.71206 23.417 8.74306 22.964 8.83206C22.776 8.86306 22.433 8.93606 22.204 8.99306C21.636 9.12306 21.334 9.10806 20.902 8.92006C20.475 8.73206 20.204 8.56106 19.949 8.32106C19.746 8.13306 19.725 8.12306 19.673 8.18606C19.631 8.23306 19.61 8.37406 19.595 8.67606C19.579 9.14006 19.506 9.38406 19.303 9.71206C19.256 9.78006 19.22 9.85306 19.188 9.92606C19.188 9.94206 19.344 10.1241 19.537 10.3221C20.204 11.0151 20.532 11.1921 21.058 11.1551C21.23 11.1391 21.35 11.1451 21.35 11.1651C21.35 11.2071 21.011 11.4721 20.871 11.5451C20.803 11.5811 20.788 11.6181 20.798 11.6961L20.881 12.2431C20.928 12.5561 20.964 12.7011 21.011 12.7431C21.136 12.8471 21.782 13.1811 22.188 13.3471C22.719 13.5611 23.011 13.6391 23.417 13.6751C23.917 13.7171 23.927 13.7171 24.646 13.6751V13.6771ZM20.339 13.1041C20.349 13.0881 20.313 12.7861 20.245 12.4371C20.162 11.9631 20.115 11.7911 20.063 11.7441C20.027 11.7131 19.834 11.5771 19.641 11.4371C19.386 11.2551 19.146 11.0521 18.922 10.8381L18.563 10.4841L18.37 10.5831L18.167 10.6921C18.183 10.7751 18.214 10.8531 18.25 10.9261C18.307 11.0511 18.422 11.3581 18.505 11.6081C18.724 12.2591 18.896 12.5721 19.328 13.1391L19.489 13.3531L19.796 13.4001C19.968 13.4261 20.14 13.4631 20.187 13.4781C20.26 13.5091 20.27 13.4941 20.291 13.3271C20.301 13.2541 20.317 13.1761 20.338 13.1031L20.339 13.1041ZM26.938 6.62506C27.204 6.59906 27.251 6.56206 27.136 6.44306C27.063 6.37006 26.896 6.36506 26.761 6.42706C26.672 6.46906 26.652 6.45806 26.511 6.30706C26.365 6.14606 26.355 6.14006 26.172 6.16106C26.005 6.18206 25.979 6.17706 25.958 6.10906C25.89 5.99406 25.812 5.89506 25.718 5.80706C25.598 5.67206 25.452 5.56706 25.286 5.50006C24.963 5.37506 24.781 5.39106 24.473 5.56306C23.582 6.04706 23.619 6.04206 22.759 5.82306C21.957 5.62006 21.358 5.41206 21.165 5.28106C21.004 5.17206 20.66 5.05206 20.373 5.01506C20.159 4.98406 20.024 5.03106 19.821 5.19706L19.712 5.28606L19.811 5.45806C19.946 5.69806 19.931 5.71306 19.728 5.53606C19.509 5.35406 19.249 5.22906 19.082 5.22306C18.962 5.22306 18.608 5.37906 18.566 5.44706C18.55 5.46806 18.66 5.49406 18.806 5.50406C18.957 5.52006 19.165 5.57206 19.306 5.62906C19.671 5.78506 19.858 5.83706 20.191 5.86906C20.556 5.90506 21.217 5.86406 21.295 5.80106C21.337 5.76506 21.451 5.75906 21.691 5.78006C22.009 5.80106 22.139 5.83206 22.894 6.03506C23.332 6.15506 23.639 6.14406 24.16 6.00406C24.4 5.93606 24.702 5.86906 24.827 5.85306C25.041 5.83206 25.082 5.84306 25.416 5.99406C25.947 6.23406 26.229 6.38506 26.385 6.52506C26.541 6.66006 26.562 6.66006 26.937 6.62906L26.938 6.62506ZM23.969 5.71406L24.287 5.54706L24.277 5.22406C24.272 5.00006 24.261 4.78106 24.251 4.56306L24.225 4.23006L23.907 4.47506C23.719 4.62106 23.537 4.73006 23.459 4.74606C23.23 4.78806 22.1 4.74606 21.995 4.68906C21.854 4.58506 21.724 4.47006 21.604 4.34506L21.312 4.04806L21.307 4.22506C21.307 4.31906 21.297 4.48006 21.276 4.57906C21.25 4.76706 21.25 4.77206 21.453 5.02706C21.562 5.16806 21.651 5.29306 21.651 5.30806C21.651 5.40706 23.156 5.87606 23.495 5.88106C23.604 5.88106 23.74 5.83406 23.969 5.71406ZM23.365 4.53106C23.74 4.45806 23.922 4.18706 24.063 3.50006C24.209 2.76006 24.282 1.59906 24.214 1.10406C24.151 0.656058 23.651 0.458058 22.698 0.489058C22.104 0.510058 21.859 0.567058 21.656 0.739058C21.531 0.843058 21.531 0.854058 21.474 1.34806C21.37 2.29606 21.526 3.64506 21.797 4.15006C21.927 4.39506 22.042 4.48306 22.281 4.52506C22.552 4.57206 23.13 4.57206 23.364 4.53006L23.365 4.53106Z" fill="#1B9AAA"/>
</svg>
