<svg width="32" height="32" viewBox="0 0 32 32" fill="none" xmlns="http://www.w3.org/2000/svg">
<g clip-path="url(#clip0_606_5468)">
<path d="M8.55691 16.3219C8.53537 16.3548 8.49355 16.4587 8.43653 16.6323C8.37824 16.8072 8.30728 17.0251 8.22365 17.2912C8.14002 17.5535 8.04879 17.8488 7.95249 18.1744L7.65218 19.1729C7.53814 19.5125 7.44944 19.8445 7.34807 20.1714L7.09464 21.0559L6.90457 21.7173L6.81588 22.0341C6.77786 22.1393 6.73985 22.2558 6.67649 22.3851C6.61314 22.5118 6.53711 22.6347 6.46108 22.75C6.37238 22.8641 6.28368 22.9616 6.18231 23.0377C6.08094 23.1137 5.97957 23.1517 5.86553 23.1517C5.68813 23.1517 5.56142 23.0909 5.47272 22.9743C5.38402 22.8539 5.34601 22.6372 5.34601 22.3205V22.0341C5.34601 21.9289 5.39669 21.73 5.47272 21.4411C5.54875 21.1496 5.63745 20.8227 5.75149 20.4578C5.85286 20.0903 5.97957 19.7127 6.09361 19.3212L6.43574 18.2568C6.13163 18.5862 5.81485 18.9157 5.47272 19.2325C5.1306 19.5619 4.7758 19.8534 4.42101 20.1068C4.05354 20.3602 3.68607 20.5756 3.31861 20.7404C2.95114 20.9051 2.59635 20.9811 2.25422 20.9811C1.86141 20.9811 1.53196 20.8924 1.25319 20.715C0.974425 20.5376 0.733671 20.3222 0.556273 20.0434C0.378875 19.7647 0.239491 19.4479 0.150793 19.1058C0.101375 18.7776 0.0506897 18.4228 0.0506897 18.0807V17.9539C0.0506897 17.9159 0.0557582 17.8741 0.063361 17.8348C0.093772 17.2013 0.183738 16.555 0.329457 15.8911C0.481513 15.222 0.671581 14.5606 0.912335 13.9017C1.15309 13.2428 1.43186 12.5965 1.74864 11.968C2.07809 11.3649 2.42022 10.7693 2.78768 10.2118C3.15515 9.65427 3.55049 9.13475 3.96611 8.66591C4.38426 8.19454 4.81128 7.78906 5.25097 7.44947C5.6894 7.10735 6.13289 6.84125 6.58146 6.65118C7.02495 6.46111 7.46845 6.35974 7.90687 6.35974C8.41372 6.35974 8.90283 6.49913 9.37674 6.77409C9.84557 7.05666 10.2891 7.50015 10.7047 8.12105C10.7985 8.26043 10.8567 8.39981 10.8821 8.54173C10.9074 8.68112 10.9201 8.8167 10.9201 8.94088C10.9201 9.23738 10.8504 9.47307 10.7085 9.64286C10.5691 9.82026 10.4044 9.89629 10.2016 9.89629C10.0242 9.89629 9.85951 9.80759 9.70746 9.61752C9.5554 9.42745 9.378 9.16136 9.20061 8.81923C9.02321 8.50245 8.83314 8.27437 8.61773 8.13498C8.40232 7.9956 8.17423 7.93224 7.92081 7.93224C7.528 7.93224 7.12252 8.09697 6.67903 8.42642C6.23553 8.75588 5.80471 9.17403 5.37389 9.70622C4.94306 10.2384 4.52491 10.8466 4.1321 11.5309C3.73929 12.2151 3.3845 12.9121 3.08039 13.6343C2.77628 14.3566 2.53552 15.0535 2.35813 15.7504C2.18073 16.4473 2.09203 17.0682 2.09203 17.6258C2.09203 17.8158 2.1047 18.0059 2.13004 18.196C2.15539 18.3987 2.20607 18.5634 2.26943 18.7282C2.33278 18.8929 2.43415 19.0196 2.56087 19.121C2.68758 19.2223 2.83963 19.273 3.01703 19.273C3.21977 19.273 3.46053 19.2097 3.71395 19.0703C3.98005 18.9309 4.24614 18.7535 4.52491 18.5254C4.80368 18.2973 5.09512 18.0439 5.37389 17.7651C5.65265 17.4864 5.93142 17.1949 6.17218 16.9035C6.41293 16.6121 6.64101 16.3333 6.81841 16.0672C7.00848 15.8011 7.14786 15.573 7.24923 15.3703L7.9829 13.0122C8.07667 12.7625 8.19831 12.5839 8.35417 12.48C8.50622 12.3735 8.66208 12.3203 8.823 12.3203C8.89903 12.3203 8.97886 12.333 9.05742 12.3583C9.13345 12.3837 9.20694 12.4242 9.26903 12.48C9.33239 12.5306 9.37927 12.6067 9.41602 12.6954C9.45403 12.7841 9.47937 12.8854 9.47937 13.0122C9.47937 13.3289 9.45403 13.628 9.40335 13.9042C9.35266 14.183 9.27663 14.4491 9.18794 14.7152C9.11191 14.9749 9.01054 15.2398 8.90917 15.5071C8.8078 15.7732 8.70643 16.052 8.60506 16.3434L8.55691 16.3219ZM19.0779 18.2581C18.8333 18.5875 18.5482 18.9094 18.2238 19.2211C17.8982 19.5353 17.5624 19.8141 17.2177 20.0574C16.8731 20.3007 16.5335 20.4971 16.2002 20.6453C15.8657 20.7936 15.5666 20.8671 15.3006 20.8671C15.0345 20.8671 14.8152 20.7784 14.648 20.601C14.4807 20.4236 14.3971 20.1195 14.3971 19.6886C14.3971 19.3845 14.4427 19.0297 14.5314 18.6243C14.387 18.8777 14.2058 19.1438 13.9891 19.3972C13.7737 19.6633 13.524 19.9041 13.2465 20.1195C12.9678 20.3349 12.6561 20.5123 12.3114 20.639C11.9667 20.7657 11.5917 20.8417 11.1837 20.8417C11.0025 20.8417 10.8251 20.8164 10.6553 20.7657C10.4779 20.715 10.3258 20.639 10.1991 20.5249C10.0724 20.4109 9.97102 20.2588 9.88232 20.0688C9.80629 19.8787 9.76828 19.638 9.76828 19.3592L9.79362 19.0551C9.81896 18.865 9.88232 18.5482 10.009 18.1301C10.1357 17.7119 10.3131 17.1671 10.5666 16.4955C10.82 15.8239 11.1621 15.0256 11.6183 14.0753C11.7323 13.8218 11.859 13.6444 12.0238 13.5304C12.1758 13.4164 12.3405 13.3657 12.5179 13.3657C12.594 13.3657 12.67 13.3784 12.7587 13.4037C12.8347 13.4164 12.9108 13.4544 12.9868 13.5051C13.0628 13.5557 13.1135 13.6191 13.1642 13.6951C13.2022 13.7585 13.2275 13.8472 13.2275 13.9486C13.2275 14.0119 13.2149 14.0753 13.2022 14.126C13.1642 14.24 13.1135 14.3794 13.0248 14.5568L12.6953 15.1827C12.5686 15.4108 12.4419 15.6642 12.3025 15.9329C12.1631 16.2028 12.0364 16.4904 11.9224 16.7717C11.8084 17.0632 11.707 17.3609 11.6183 17.6587C11.5296 17.9628 11.4789 18.2543 11.4662 18.533C11.4662 18.6597 11.4916 18.7611 11.5423 18.8625C11.5929 18.9638 11.6943 19.0145 11.821 19.0145C12.1758 19.0145 12.5306 18.9005 12.8601 18.6597C13.1895 18.4228 13.4936 18.1275 13.7724 17.7753C14.0512 17.4205 14.3046 17.0403 14.5327 16.6349C14.7608 16.2294 14.9382 15.8619 15.0902 15.5274C15.1916 15.3031 15.2929 15.0624 15.369 14.8051C15.445 14.5517 15.5337 14.311 15.6351 14.0955C15.7238 13.8801 15.8378 13.6951 15.9645 13.5507C16.0786 13.4062 16.2306 13.3353 16.4207 13.3353C16.6108 13.3353 16.7755 13.4113 16.8895 13.5634C17.0036 13.7154 17.0669 13.8928 17.0669 14.1082C17.0669 14.2223 17.0289 14.387 16.9529 14.5897C16.8769 14.7925 16.7882 15.0332 16.6741 15.2993L16.3067 16.1572C16.1673 16.4613 16.0532 16.7654 15.9392 17.0822C15.8251 17.3926 15.7238 17.7031 15.6477 17.9996C15.5717 18.3037 15.5337 18.5824 15.5337 18.8359C15.5337 19.0766 15.6604 19.1907 15.9012 19.1907C16.0786 19.1907 16.294 19.14 16.5474 19.0133C16.8008 18.8992 17.0669 18.7345 17.3457 18.5191C17.6245 18.3037 17.9032 18.0502 18.182 17.7588C18.4608 17.4674 18.7142 17.1582 18.9296 16.8211L19.0183 18.1643L19.0779 18.2581Z" fill="#1B9AAA" stroke="#1B9AAA" stroke-miterlimit="10"/>
<path d="M19.3364 17.7638C19.2755 17.9159 19.216 18.0933 19.159 18.2935C19.0994 18.4937 19.0703 18.6736 19.0703 18.832C19.0703 18.9309 19.0867 19.0094 19.1209 19.069C19.1539 19.1285 19.2172 19.1577 19.311 19.1577C19.4289 19.1577 19.5746 19.1171 19.7507 19.0348C19.9256 18.9524 20.1144 18.8447 20.3171 18.7079C20.5199 18.5735 20.7327 18.4189 20.9507 18.2441C21.1712 18.0667 21.3904 17.8766 21.607 17.6992C21.8225 17.5092 22.0303 17.3191 22.2279 17.129C22.4256 16.9389 22.603 16.7615 22.7601 16.6095C22.8032 16.5588 22.8552 16.5335 22.9173 16.5081C22.9781 16.4828 23.0313 16.4701 23.0756 16.4701C23.1897 16.4701 23.2784 16.5081 23.3544 16.6095C23.4304 16.6982 23.4685 16.8249 23.4685 16.977C23.4685 17.1163 23.4304 17.2684 23.3544 17.4331C23.2784 17.5978 23.139 17.7626 22.9489 17.9273C22.5941 18.3074 22.2393 18.6749 21.8719 19.0297C21.5171 19.3718 21.1496 19.6886 20.7948 19.9547C20.44 20.2208 20.0852 20.4235 19.7304 20.5883C19.3756 20.7403 19.0335 20.8163 18.7041 20.8163C18.476 20.8163 18.2859 20.7783 18.1339 20.7023C17.9818 20.6263 17.8678 20.5249 17.7664 20.3982C17.6777 20.2715 17.6143 20.1194 17.5763 19.9547C17.5383 19.7773 17.5256 19.5999 17.5256 19.4098C17.5256 19.0804 17.5636 18.7509 17.6523 18.4088C17.741 18.0667 17.8297 17.7499 17.9438 17.4711C18.1465 16.9516 18.3366 16.4448 18.5393 15.9379L19.0969 14.5441L21.6172 8.19704C21.7122 7.94362 21.8453 7.76368 22.0163 7.65218C22.1887 7.55081 22.3585 7.50012 22.5321 7.50012C22.7094 7.50012 22.8615 7.55081 23.006 7.66485C23.1453 7.77382 23.2214 7.95629 23.2214 8.20591C23.2214 8.32375 23.196 8.4492 23.1517 8.58098C23.101 8.70769 23.0503 8.85215 22.9743 9.00293C22.8349 9.30958 22.6702 9.68718 22.4801 10.1357L21.8465 11.6056C21.6311 12.1315 21.403 12.6827 21.175 13.2529L20.4907 14.9255C20.2626 15.4678 20.0599 15.9772 19.8698 16.4638L19.3756 17.722L19.3364 17.7638Z" fill="#1B9AAA" stroke="#1B9AAA" stroke-miterlimit="10"/>
<path d="M31.1586 15.9772C31.2385 15.9227 31.3107 15.8796 31.3779 15.8467C31.4438 15.8137 31.5084 15.796 31.5679 15.796C31.6908 15.796 31.7833 15.8517 31.8442 15.9607C31.9075 16.0697 31.9455 16.2015 31.9455 16.3611C31.9455 16.5322 31.9075 16.707 31.8315 16.8844C31.7555 17.0618 31.6541 17.2114 31.502 17.3279C30.9065 17.8563 30.3743 18.3378 29.9181 18.7725C29.4493 19.2071 29.0185 19.5809 28.6003 19.8939C28.1822 20.2106 27.7767 20.4514 27.3839 20.6288C26.9911 20.8062 26.5729 20.8949 26.1168 20.8949C25.6986 20.8949 25.3691 20.8062 25.1411 20.6161C24.913 20.4387 24.7989 20.1853 24.7989 19.8558V19.7798C24.7989 19.7672 24.8116 19.7291 24.8116 19.7038C24.837 19.5137 24.9257 19.2856 25.0777 19.0195C25.2298 18.7661 25.4072 18.5 25.6226 18.2213C25.838 17.9425 26.0661 17.6637 26.3068 17.385C26.5476 17.1062 26.763 16.8401 26.9784 16.5867C27.1811 16.3332 27.3459 16.1052 27.4853 15.8897C27.6246 15.687 27.688 15.5096 27.688 15.3829C27.688 15.3069 27.6626 15.2435 27.6094 15.1928C27.5499 15.1548 27.4574 15.1295 27.3307 15.1295C27.1026 15.1295 26.8745 15.1928 26.6388 15.3069C26.3981 15.4209 26.1624 15.5856 25.9292 15.7757C25.7011 15.9784 25.4731 16.1939 25.2551 16.4473C25.0372 16.7007 24.837 16.9668 24.6342 17.2329C24.4441 17.5117 24.2668 17.7778 24.102 18.0565C23.95 18.3353 23.8106 18.5887 23.6965 18.8168L23.5572 19.1209L23.3671 19.5771L23.139 20.0839L22.9236 20.5781L22.7462 20.9963C22.6955 21.123 22.6575 21.199 22.6322 21.2497C22.6068 21.313 22.5688 21.4271 22.5054 21.5918L22.2774 22.1722L22.0113 22.8691L21.7578 23.5533L21.5424 24.1337C21.4791 24.2984 21.4411 24.4099 21.4284 24.4695C21.365 24.6342 21.3017 24.7989 21.2256 24.951C21.1496 25.103 21.0673 25.2335 20.9697 25.3488C20.8734 25.4629 20.7619 25.5579 20.6364 25.6276C20.5097 25.691 20.3703 25.729 20.2183 25.729C20.0155 25.729 19.8508 25.6783 19.7241 25.5871C19.5974 25.4984 19.5214 25.3083 19.5214 25.0422C19.5214 24.9155 19.534 24.7761 19.572 24.6367C19.5974 24.4973 19.6481 24.3681 19.6988 24.2312C19.7368 24.0919 19.8001 23.9651 19.8508 23.8384C19.9015 23.7117 19.9522 23.585 19.9902 23.4634C20.2816 22.8045 20.5921 22.1455 20.9025 21.479C21.213 20.8125 21.5108 20.1612 21.8022 19.515C22.0886 18.8688 22.3534 18.2352 22.6005 17.6016C22.8412 16.9807 23.044 16.3776 23.2087 15.8023L23.3861 15.3005C23.4621 15.0851 23.5508 14.8697 23.6522 14.667C23.7536 14.4642 23.8676 14.2742 23.9943 14.1221C24.121 13.97 24.2604 13.8902 24.3998 13.8902C24.6279 13.8902 24.7888 13.9409 24.8889 14.0423C24.9903 14.1538 25.041 14.2957 25.041 14.4984C25.041 14.5365 25.0359 14.5998 25.0245 14.6885C25.0118 14.7772 24.9991 14.8659 24.9789 14.9609L24.9244 15.227C24.9117 15.3157 24.8864 15.3791 24.8737 15.4171C25.0764 15.1941 25.3045 14.9736 25.5427 14.7519C25.7835 14.5327 26.0369 14.3337 26.2903 14.1563C26.5438 13.9789 26.8099 13.8269 27.076 13.7192C27.3421 13.6051 27.6082 13.5481 27.8743 13.5481C28.0643 13.5481 28.2417 13.5734 28.4267 13.6241C28.6041 13.6773 28.7688 13.7546 28.9082 13.8573C29.0565 13.9586 29.1718 14.0854 29.2605 14.2374C29.3492 14.3895 29.3935 14.5707 29.3935 14.7747C29.3935 15.0446 29.3226 15.3322 29.1908 15.6363C29.0514 15.9455 28.8867 16.2572 28.6763 16.5613C28.4736 16.873 28.2493 17.1746 28.0098 17.4673C27.7691 17.7588 27.5537 18.0249 27.3383 18.2656L26.8061 18.8865C26.6667 19.0512 26.5907 19.1653 26.5881 19.2286C26.5881 19.3046 26.6135 19.368 26.6642 19.4187C26.7148 19.4694 26.8035 19.4947 26.9176 19.4947C27.0164 19.4947 27.1558 19.4377 27.3357 19.33C27.5233 19.216 27.7792 19.0386 28.1087 18.7775C28.4381 18.5114 28.8639 18.1693 29.372 17.7258C29.8789 17.2874 30.5124 16.7375 31.2562 16.0697L31.1586 15.9772Z" fill="#1B9AAA" stroke="#1B9AAA" stroke-miterlimit="10"/>
</g>
<defs>
<clipPath id="clip0_606_5468">
<rect width="32" height="32" fill="white"/>
</clipPath>
</defs>
</svg>
