<svg width="32" height="32" viewBox="0 0 32 32" fill="none" xmlns="http://www.w3.org/2000/svg">
<g clip-path="url(#clip0_89_6122)">
<path fill-rule="evenodd" clip-rule="evenodd" d="M15 0C14.8135 0.0255615 14.6268 0.0498984 14.44 0.0742373C14.0301 0.127659 13.6201 0.18109 13.2125 0.2475C6.96 1.26667 1.66833 6.33083 0.381667 12.5392C0.28124 13.0245 0.216696 13.5177 0.15218 14.0107L0.152178 14.0108C0.120867 14.25 0.0895633 14.4893 0.0541667 14.7275C0.0454239 14.7876 0.0327398 14.847 0.0201084 14.9061C0.0134761 14.9372 0.00685839 14.9682 0.000833333 14.9992C0 10.005 0 5.01 0 0V17C0.0257043 17.1878 0.0490145 17.376 0.0723211 17.5642C0.123063 17.9739 0.173789 18.3835 0.249167 18.7883C1.085 23.2842 3.41667 26.8092 7.2025 29.3583C9.4925 30.9 12.0367 31.7442 14.7917 31.9508C14.8396 31.9542 14.8864 31.9679 14.9332 31.9816C14.9554 31.9881 14.9777 31.9946 15 32H17C17.1873 31.9744 17.375 31.951 17.5626 31.9275C17.9618 31.8776 18.3607 31.8278 18.7558 31.7575C22.4792 31.0958 25.5933 29.335 28.075 26.4883C30.3833 23.84 31.6675 20.7467 31.9483 17.2417C31.9528 17.1867 31.9667 17.1329 31.9807 17.0789C31.9875 17.0527 31.9943 17.0264 32 17V15C31.975 14.8167 31.9532 14.6326 31.9314 14.4485L31.9314 14.4485L31.9314 14.4484C31.8836 14.0442 31.8358 13.6398 31.7533 13.2425C30.4125 6.7575 26.5633 2.53083 20.2433 0.585833C19.5854 0.383392 18.8941 0.289215 18.2025 0.195C17.8806 0.151148 17.5587 0.107288 17.24 0.0525C17.1867 0.0430556 17.1333 0.0306481 17.08 0.0182407C17.0533 0.012037 17.0267 0.00583333 17 0H15ZM16.0008 2.23917C23.6017 2.24 29.7708 8.41333 29.7608 16.0092C29.7508 23.6142 23.5717 29.7825 15.9825 29.7617C8.38416 29.7408 2.24583 23.5975 2.23833 16.0067C2.23167 8.41083 8.40166 2.23833 16.0008 2.23917ZM17.6353 17.2214V17.2213C17.6326 16.3144 17.6299 15.4074 17.6442 14.5008C17.6517 14.0092 17.4267 13.71 17.0058 13.5367C16.3533 13.2675 15.6858 13.2617 15.0292 13.5167C14.5917 13.6867 14.3692 14.0017 14.3717 14.5025C14.3842 17.0517 14.3842 19.6017 14.3708 22.1508C14.3683 22.6075 14.5617 22.9142 14.9408 23.1058C15.6692 23.4742 16.4042 23.4608 17.1208 23.0658C17.475 22.8708 17.6508 22.58 17.6442 22.15C17.631 21.2278 17.6333 20.306 17.6357 19.3843C17.6366 19.0259 17.6375 18.6675 17.6375 18.3092C17.6375 17.9466 17.6364 17.584 17.6353 17.2214ZM16.0208 11.3933C16.0386 11.3922 16.0588 11.3914 16.0808 11.3905C16.1371 11.3884 16.2048 11.3858 16.2708 11.375C16.8992 11.2675 17.3792 10.9508 17.6133 10.345C17.8108 9.83333 17.6917 9.3625 17.3275 8.9575C16.64 8.1925 15.3075 8.205 14.63 8.98C14.1633 9.51333 14.155 10.2342 14.6158 10.7717C14.9758 11.1925 15.4408 11.3875 16.0208 11.3933Z" fill="#1B9AAA"/>
</g>
<defs>
<clipPath id="clip0_89_6122">
<rect width="32" height="32" fill="white"/>
</clipPath>
</defs>
</svg>
