<svg width="32" height="32" viewBox="0 0 32 32" fill="none" xmlns="http://www.w3.org/2000/svg">
<g clip-path="url(#clip0_21_362)">
<path d="M3.94427 20.1186C4.05679 20.1555 4.1312 20.1797 4.21287 20.2063C4.2044 20.3322 4.20621 20.4532 4.18746 20.5705C3.84445 22.7635 5.01141 24.9595 6.8656 26.0768C7.68653 26.5717 7.69076 26.5711 8.56735 26.2196C11.4917 25.0466 13.7706 23.0829 15.5328 20.4967C15.6841 20.2753 15.8256 20.1803 16.1051 20.1785C18.07 20.167 19.7917 18.8385 20.3701 16.9281C20.3991 16.8313 20.5171 16.6939 20.5969 16.6909C21.2007 16.671 21.805 16.68 22.4287 16.68C22.8141 18.0902 23.6205 19.1579 24.9562 19.775C26.2847 20.389 27.6066 20.3164 28.9719 19.6401C29.0639 20.0103 29.1806 20.3576 29.2327 20.7145C29.6071 23.262 27.9955 25.3412 25.6344 25.9087C24.5939 26.1585 23.5352 26.3509 22.4747 26.4997C20.6889 26.7508 18.9853 27.2644 17.3592 28.0224C15.5292 28.8754 13.7264 29.787 11.9031 30.6533C10.7863 31.1839 9.63752 31.6382 8.4155 31.8681C6.29815 32.2661 4.45364 31.7894 3.0453 30.0823C2.40042 29.3 2.14573 28.3454 2.0441 27.3478C1.83236 25.2656 2.40526 23.3509 3.28789 21.5015C3.50386 21.049 3.71801 20.5947 3.94427 20.118V20.1186Z" fill="#1B9AAA"/>
<path d="M13.3489 0H29.2901C28.039 3.7344 26.7946 7.44702 25.523 11.2419C24.1189 8.3478 22.7457 5.51781 21.3313 2.60313C19.9114 5.5039 18.5303 8.32602 17.1105 11.2274C15.8449 7.45125 14.6036 3.74589 13.3489 0Z" fill="#1B9AAA"/>
<path d="M3.18726 15.7488C3.19149 14.5981 4.07352 13.7028 5.19995 13.707C6.31549 13.7113 7.21203 14.6284 7.21264 15.7651C7.21264 16.9127 6.29915 17.8322 5.16909 17.822C4.04629 17.8117 3.18363 16.9091 3.18786 15.7482L3.18726 15.7488Z" fill="#1B9AAA"/>
<path d="M18.0651 15.6322C18.0705 16.79 17.206 17.6926 16.082 17.7029C14.9471 17.7132 14.0506 16.8021 14.053 15.6418C14.0554 14.4912 14.935 13.5898 16.0572 13.5874C17.1848 13.585 18.0596 14.4767 18.0651 15.6328V15.6322Z" fill="#1B9AAA"/>
<path d="M26.8008 17.6908C25.8928 17.7356 24.7966 16.9873 24.8087 15.6322C24.8208 14.2244 25.9738 13.5663 26.8274 13.5898C27.9551 13.6219 28.8214 14.51 28.8153 15.6878C28.8099 16.804 27.9145 17.6945 26.8008 17.6908Z" fill="#1B9AAA"/>
</g>
<defs>
<clipPath id="clip0_21_362">
<rect width="32" height="32" fill="white"/>
</clipPath>
</defs>
</svg>
