<svg width="32" height="32" viewBox="0 0 32 32" fill="none" xmlns="http://www.w3.org/2000/svg">
<g clip-path="url(#clip0_21_165)">
<path fill-rule="evenodd" clip-rule="evenodd" d="M0 0H32V32H0V0ZM24.4622 26.8261C22.979 26.8261 22.1404 26.0525 21.4959 25.0001L19.0522 26.4198C19.935 28.164 21.7392 29.4948 24.5318 29.4948C27.3879 29.4948 29.5147 28.0116 29.5147 25.3043C29.5147 22.7931 28.0721 21.6762 25.5172 20.5805L24.7655 20.2585C23.4753 19.6998 22.9166 19.3346 22.9166 18.4325C22.9166 17.7026 23.4748 17.1438 24.3556 17.1438C25.219 17.1438 25.7752 17.508 26.2908 18.4325L28.6324 16.929C27.6419 15.1868 26.2674 14.5214 24.3556 14.5214C21.6701 14.5214 19.9517 16.2382 19.9517 18.4934C19.9517 20.9417 21.3933 22.0998 23.5632 23.0242L24.3149 23.3468C25.6863 23.9466 26.5041 24.3118 26.5041 25.3429C26.5041 26.2034 25.7082 26.8261 24.4622 26.8261ZM12.8086 26.8073C11.7755 26.8073 11.3458 26.0988 10.8734 25.2607L8.42565 26.7426C9.13473 28.2433 10.529 29.4892 12.9366 29.4892C15.6013 29.4892 17.4268 28.0721 17.4268 24.9584V14.693H14.4198V24.9178C14.4198 26.4208 13.7966 26.8073 12.8086 26.8073Z" fill="#1B9AAA"/>
</g>
<defs>
<clipPath id="clip0_21_165">
<rect width="32" height="32" fill="white"/>
</clipPath>
</defs>
</svg>
