<svg width="32" height="32" viewBox="0 0 32 32" fill="none" xmlns="http://www.w3.org/2000/svg">
<path fill-rule="evenodd" clip-rule="evenodd" d="M26.2859 20.9801C26.4126 20.9073 26.518 20.8024 26.5914 20.6761C26.6648 20.5497 26.7037 20.4062 26.7042 20.2601L26.7192 15.4376C26.7197 15.2914 26.7586 15.1479 26.832 15.0216C26.9054 14.8952 27.0108 14.7903 27.1375 14.7176L29.7517 13.2159C29.8784 13.1431 30.022 13.105 30.1681 13.1052C30.3142 13.1055 30.4577 13.1441 30.5841 13.2173C30.7106 13.2905 30.8156 13.3956 30.8886 13.5222C30.9616 13.6488 31 13.7923 31 13.9384V22.7059C31 22.8525 30.9613 22.9965 30.8879 23.1233C30.8144 23.2502 30.7088 23.3554 30.5817 23.4284L20.7159 29.0951C20.5898 29.1674 20.4471 29.2055 20.3018 29.2057C20.1565 29.2058 20.0137 29.168 19.8875 29.0959L12.145 24.6676C12.0175 24.5947 11.9115 24.4894 11.8377 24.3624C11.7639 24.2354 11.7251 24.0911 11.725 23.9442V19.5234C11.725 19.5184 11.7309 19.5151 11.7359 19.5176C11.74 19.5201 11.7459 19.5176 11.7459 19.5117V19.5067C11.7459 19.5034 11.7475 19.5001 11.7509 19.4984L18.1275 15.8351C18.1334 15.8317 18.1309 15.8226 18.1242 15.8226C18.1224 15.8226 18.1207 15.8219 18.1195 15.8206C18.1182 15.8194 18.1175 15.8177 18.1175 15.8159L18.13 11.4817C18.1306 11.3352 18.0925 11.191 18.0196 11.0639C17.9467 10.9368 17.8416 10.8311 17.7148 10.7576C17.588 10.684 17.4441 10.6452 17.2975 10.6451C17.151 10.6449 17.0069 10.6834 16.88 10.7567L12.1409 13.4876C12.0144 13.5604 11.871 13.5987 11.725 13.5987C11.5791 13.5987 11.4357 13.5604 11.3092 13.4876L6.55502 10.7501C6.42836 10.6771 6.28475 10.6388 6.13859 10.6389C5.99244 10.639 5.84888 10.6775 5.72232 10.7507C5.59577 10.8238 5.49067 10.9289 5.41757 11.0554C5.34447 11.182 5.30594 11.3256 5.30586 11.4717V19.3051C5.30595 19.4511 5.26769 19.5945 5.1949 19.7211C5.12211 19.8477 5.01734 19.9529 4.8911 20.0262C4.76485 20.0995 4.62155 20.1384 4.47555 20.139C4.32955 20.1395 4.18597 20.1016 4.05919 20.0292L1.42086 18.5209C1.29306 18.4479 1.18688 18.3424 1.11311 18.215C1.03934 18.0877 1.00061 17.9431 1.00086 17.7959L1.02419 4.10423C1.02451 3.95826 1.06316 3.81494 1.13627 3.68861C1.20939 3.56228 1.3144 3.45737 1.44081 3.38438C1.56721 3.31139 1.71057 3.27288 1.85653 3.27271C2.0025 3.27253 2.14595 3.3107 2.27252 3.38339L11.31 8.57423C11.4363 8.64675 11.5794 8.68491 11.725 8.68491C11.8707 8.68491 12.0137 8.64675 12.14 8.57423L21.175 3.38339C21.3018 3.3106 21.4455 3.27242 21.5916 3.27271C21.7378 3.27299 21.8813 3.31172 22.0078 3.385C22.1343 3.45829 22.2393 3.56356 22.3122 3.69023C22.3851 3.81691 22.4235 3.96055 22.4234 4.10673V17.8017C22.4234 17.9482 22.3848 18.0922 22.3116 18.219C22.2383 18.3458 22.1328 18.4511 22.0059 18.5242L17.2742 21.2492C17.1471 21.3225 17.0416 21.428 16.9684 21.5551C16.8951 21.6822 16.8567 21.8264 16.857 21.9731C16.8574 22.1198 16.8964 22.2638 16.9703 22.3906C17.0441 22.5173 17.1501 22.6224 17.2775 22.6951L19.8875 24.1809C20.0137 24.2527 20.1564 24.2903 20.3015 24.29C20.4466 24.2897 20.5892 24.2515 20.715 24.1792L26.2859 20.9801ZM26.8334 8.69506C26.8335 8.84243 26.8727 8.98714 26.9469 9.11442C27.0212 9.2417 27.1279 9.34701 27.2562 9.41961C27.3844 9.49221 27.5296 9.52949 27.677 9.52767C27.8244 9.52585 27.9686 9.48497 28.095 9.40922L30.595 7.90922C30.7184 7.83527 30.8206 7.73063 30.8916 7.60548C30.9625 7.48033 30.9999 7.33893 31 7.19506V4.13839C30.9998 3.99109 30.9605 3.84649 30.8861 3.71932C30.8118 3.59216 30.7051 3.48697 30.5768 3.41447C30.4486 3.34197 30.3035 3.30476 30.1562 3.30662C30.0089 3.30848 29.8647 3.34935 29.7384 3.42506L27.2384 4.92506C27.1149 4.99901 27.0128 5.10365 26.9418 5.22881C26.8708 5.35396 26.8335 5.49535 26.8334 5.63923V8.69506Z" fill="#1B9AAA"/>
</svg>
