<svg width="32" height="32" viewBox="0 0 32 32" fill="none" xmlns="http://www.w3.org/2000/svg">
<g clip-path="url(#clip0_767_6575)">
<g clip-path="url(#clip1_767_6575)">
<path d="M16.0007 31.9995C11.407 31.9995 6.8134 31.9995 2.21934 31.9995C0.940431 31.9995 0.000468023 31.0562 0.000468023 29.7717C0.000468023 20.5845 -0.00038147 11.3972 -0.00038147 2.20953C-0.00038147 0.944636 0.945953 0.00127424 2.21552 0.00127424C11.4028 0.000849492 20.5905 0 29.7777 0C31.0392 0 31.9962 0.95398 31.9962 2.21165C31.9975 11.4134 31.9987 20.6146 31.9996 29.8163C31.9996 31.0511 31.0443 32.0012 29.8028 32.0017C25.2019 32.0017 20.6011 32.0017 16.0002 32.0017V32L16.0007 31.9995ZM9.93528 7.50781C9.87369 7.49422 9.83292 7.47766 9.79214 7.47766C8.56038 7.47553 7.32861 7.47553 6.09728 7.47299C5.969 7.47299 5.92483 7.52863 5.92695 7.6535C5.93247 7.95762 5.94012 8.26301 5.92398 8.56628C5.91294 8.76889 5.99194 8.81901 6.17968 8.81646C6.82359 8.80796 7.46793 8.81901 8.11185 8.80966C8.29534 8.80711 8.3531 8.85978 8.3531 9.04922C8.34758 13.6857 8.34758 18.3223 8.3514 22.9588C8.3514 23.1334 8.30128 23.1924 8.12416 23.1899C7.48025 23.1814 6.83591 23.1928 6.19199 23.1831C5.99534 23.1801 5.90954 23.2294 5.9227 23.4426C5.93969 23.7174 5.93885 23.9952 5.9227 24.2704C5.91039 24.4777 5.98472 24.5359 6.1869 24.5346C7.34051 24.5274 8.49454 24.5321 9.64815 24.5325C9.93613 24.5325 9.93613 24.5312 9.93613 24.2403C9.93571 18.7474 9.93486 13.2542 9.93443 7.76139C9.93443 7.67771 9.93443 7.59404 9.93443 7.50824L9.93528 7.50781ZM22.0631 7.49295C22.0631 7.59786 22.0631 7.68196 22.0631 7.76564C22.0618 9.64174 22.0592 11.5174 22.0592 13.3935C22.0592 17.0111 22.0605 20.6282 22.0609 24.2458C22.0609 24.4369 22.1588 24.5328 22.3544 24.5333C22.673 24.5338 22.9916 24.5333 23.3101 24.5333C24.1312 24.5333 24.9526 24.5333 25.7736 24.5321C26.0714 24.5321 26.0714 24.5308 26.0718 24.2454C26.0722 23.9765 26.0608 23.7068 26.0756 23.4388C26.0863 23.2438 26.0196 23.1793 25.8246 23.1818C25.1807 23.1907 24.5364 23.1797 23.892 23.1877C23.7141 23.1899 23.6469 23.147 23.6474 22.9524C23.6537 18.3227 23.655 13.693 23.6512 9.06324C23.6512 8.87847 23.7 8.81731 23.889 8.82028C24.5402 8.83005 25.1917 8.81986 25.8429 8.82495C26.0124 8.82623 26.0863 8.77441 26.0786 8.59389C26.0667 8.30421 26.0637 8.01284 26.0795 7.72359C26.0909 7.51334 26.0085 7.45812 25.8102 7.45982C24.6353 7.47001 23.4601 7.47001 22.2852 7.47426C22.2228 7.47426 22.1603 7.48488 22.0622 7.49337L22.0631 7.49295ZM16.0423 19.2601C15.999 19.1671 15.9726 19.1183 15.9531 19.0664C15.6324 18.2216 15.2803 17.387 15 16.529C14.5442 15.1341 14.1322 13.7253 13.7126 12.3189C13.6607 12.1456 13.594 12.0726 13.4101 12.0853C13.1918 12.1006 12.9714 12.0887 12.7522 12.0887C12.4638 12.0887 12.1754 12.0887 11.8917 12.0887C11.8802 12.138 11.8696 12.1592 11.8721 12.1783C11.8776 12.2199 11.8891 12.2607 11.8997 12.3015C12.7068 15.3495 13.8812 18.2611 15.1745 21.1286C15.2259 21.2424 15.2939 21.2832 15.4166 21.2806C15.7989 21.2738 16.1812 21.2717 16.563 21.2815C16.7053 21.2849 16.7779 21.2373 16.834 21.1069C17.0545 20.5942 17.2919 20.0892 17.5123 19.5766C18.5275 17.2128 19.4454 14.8143 20.0999 12.3219C20.1181 12.2518 20.1237 12.1783 20.1377 12.0891C19.5783 12.0891 19.0491 12.0845 18.5198 12.0968C18.4693 12.098 18.3962 12.2 18.3763 12.2675C18.183 12.9314 18.0101 13.6016 17.8101 14.2634C17.3029 15.9399 16.7159 17.5887 16.0423 19.2593V19.2601Z" fill="#1B9AAA"/>
</g>
</g>
<defs>
<clipPath id="clip0_767_6575">
<rect width="32" height="32" fill="white"/>
</clipPath>
<clipPath id="clip1_767_6575">
<rect width="32.0004" height="32.0017" fill="white" transform="translate(-0.00038147)"/>
</clipPath>
</defs>
</svg>
