<svg width="96" height="48" viewBox="0 0 96 48" fill="none" xmlns="http://www.w3.org/2000/svg">
<g clip-path="url(#clip0_21_288)">
<path d="M63.8179 13.4077H80.5394V16.4478H73.9062V32.4411H70.5893V16.4478H63.8179V13.4077Z" fill="#1B9AAA"/>
<path d="M36.3172 13.4077V16.4478H22.9137V21.3383H33.6928V24.3784H22.9137V29.4011H36.3172V32.4411H19.5971V16.4478H19.5957V13.4077H36.3172Z" fill="#1B9AAA"/>
<path d="M44.6669 13.416H40.3264L55.8731 32.4494H60.2262L52.4519 22.9393L60.2138 13.4305L55.8731 13.4371L50.2787 20.2809L44.6669 13.416Z" fill="#1B9AAA"/>
<path d="M49.1209 27.0117L46.9472 24.3496L40.314 32.4639H44.6669L49.1209 27.0117Z" fill="#1B9AAA"/>
<path fill-rule="evenodd" clip-rule="evenodd" d="M19.7134 32.4415L4.14581 13.4001H0V32.4336H3.31665V17.4685L15.5468 32.4415H19.7134Z" fill="#1B9AAA"/>
<path d="M81.2849 32.3252C81.042 32.3252 80.8354 32.2423 80.6624 32.0765C80.4894 31.9108 80.4039 31.7101 80.406 31.4723C80.4039 31.2411 80.4894 31.0426 80.6624 30.8768C80.8354 30.7111 81.042 30.6282 81.2849 30.6282C81.5186 30.6282 81.723 30.7111 81.896 30.8768C82.0714 31.0426 82.1589 31.2411 82.1613 31.4723C82.1589 31.6294 82.1185 31.7733 82.0376 31.902C81.9545 32.0329 81.849 32.1354 81.7162 32.2096C81.5858 32.2859 81.4421 32.3252 81.2849 32.3252Z" fill="#1B9AAA"/>
<path d="M86.946 24.3071H88.4157V29.8846C88.4135 30.3972 88.301 30.8356 88.0809 31.2042C87.8585 31.5728 87.5505 31.8542 87.155 32.0527C86.7618 32.249 86.301 32.3494 85.7774 32.3494C85.2986 32.3494 84.8696 32.2643 84.4875 32.0985C84.1055 31.9327 83.8021 31.6841 83.5797 31.3569C83.3548 31.0297 83.2446 30.6218 83.2446 30.1332H84.7168C84.719 30.347 84.7685 30.5324 84.8627 30.6872C84.957 30.8421 85.0874 30.9599 85.2538 31.0428C85.4222 31.1257 85.6156 31.1671 85.8335 31.1671C86.0696 31.1671 86.2718 31.1191 86.4358 31.021C86.5998 30.925 86.7257 30.781 86.8134 30.5891C86.8987 30.3993 86.9438 30.1638 86.946 29.8846V24.3071Z" fill="#1B9AAA"/>
<path d="M94.463 26.4883C94.4272 26.1502 94.2698 25.8863 93.9956 25.6987C93.7191 25.5089 93.3619 25.4151 92.9236 25.4151C92.6158 25.4151 92.3507 25.461 92.1305 25.5504C91.9102 25.642 91.7394 25.7641 91.6224 25.919C91.5057 26.0739 91.4473 26.2506 91.4426 26.4491C91.4426 26.6148 91.4831 26.7588 91.5618 26.8788C91.6405 27.0009 91.746 27.1034 91.8832 27.1863C92.0179 27.2714 92.1685 27.3412 92.3327 27.3979C92.4989 27.4546 92.6653 27.5026 92.8315 27.5419L93.5978 27.7273C93.9057 27.7971 94.2047 27.8909 94.49 28.0108C94.7753 28.1286 95.0339 28.2791 95.2607 28.4601C95.4878 28.6412 95.6676 28.8593 95.8001 29.1145C95.9327 29.3697 96.0002 29.6685 96.0002 30.0132C96.0002 30.4778 95.8789 30.8857 95.6337 31.239C95.3889 31.5902 95.036 31.8651 94.5731 32.0636C94.1124 32.2599 93.5551 32.3602 92.899 32.3602C92.2652 32.3602 91.7124 32.2642 91.2472 32.0723C90.7799 31.8825 90.4156 31.6033 90.1527 31.2369C89.8898 30.8704 89.7483 30.4233 89.728 29.8976H91.1843C91.2046 30.1724 91.2945 30.4015 91.4473 30.5869C91.6022 30.7701 91.8045 30.9053 92.0518 30.9969C92.3013 31.0863 92.5798 31.1322 92.8877 31.1322C93.2091 31.1322 93.4923 31.0842 93.7371 30.9904C93.9798 30.8966 94.1708 30.7657 94.308 30.5956C94.4474 30.4276 94.5171 30.2291 94.5193 30.0023C94.5171 29.7951 94.454 29.6227 94.3326 29.4875C94.2091 29.3523 94.0383 29.2389 93.8202 29.1472C93.6002 29.0556 93.3439 28.9727 93.0517 28.9008L92.1214 28.6695C91.4494 28.5016 90.9168 28.2464 90.5279 27.9039C90.1371 27.5615 89.9437 27.1078 89.9437 26.5385C89.9437 26.0717 90.074 25.6617 90.3372 25.3105C90.5976 24.9593 90.9551 24.6866 91.4068 24.4925C91.8607 24.2962 92.3731 24.2002 92.9438 24.2002C93.5237 24.2002 94.0315 24.2962 94.4698 24.4925C94.9079 24.6866 95.2519 24.9571 95.5012 25.3017C95.7507 25.6464 95.881 26.0412 95.8879 26.4883H94.463Z" fill="#1B9AAA"/>
</g>
<defs>
<clipPath id="clip0_21_288">
<rect width="96" height="48" fill="white"/>
</clipPath>
</defs>
</svg>
