<svg width="32" height="32" viewBox="0 0 32 32" fill="none" xmlns="http://www.w3.org/2000/svg">
<path d="M27.2798 6.09521H25.4821C25.137 6.09521 24.8571 6.37504 24.8571 6.72021V6.99402C24.8571 7.3392 25.137 7.61902 25.4821 7.61902H27.2798C27.6249 7.61902 27.9048 7.3392 27.9048 6.99402V6.72021C27.9048 6.37504 27.6249 6.09521 27.2798 6.09521Z" fill="#1B9AAA"/>
<path d="M10.5179 30.4762H2.625C2.27982 30.4762 2 30.756 2 31.1012V31.375C2 31.7202 2.27982 32 2.625 32H10.5179C10.863 32 11.1429 31.7202 11.1429 31.375V31.1012C11.1429 30.756 10.863 30.4762 10.5179 30.4762Z" fill="#1B9AAA"/>
<path d="M25.7559 18.2858H20.9107C20.5655 18.2858 20.2857 18.5656 20.2857 18.9108V19.1846C20.2857 19.5298 20.5655 19.8096 20.9107 19.8096H25.7559C26.1011 19.8096 26.3809 19.5298 26.3809 19.1846V18.9108C26.3809 18.5656 26.1011 18.2858 25.7559 18.2858Z" fill="#1B9AAA"/>
<path d="M18.1369 18.2858H11.7679C11.4227 18.2858 11.1429 18.5656 11.1429 18.9108V19.1846C11.1429 19.5298 11.4227 19.8096 11.7679 19.8096H18.1369C18.4821 19.8096 18.7619 19.5298 18.7619 19.1846V18.9108C18.7619 18.5656 18.4821 18.2858 18.1369 18.2858Z" fill="#1B9AAA"/>
<path d="M8.99405 18.2858H2.625C2.27982 18.2858 2 18.5656 2 18.9108V19.1846C2 19.5298 2.27982 19.8096 2.625 19.8096H8.99405C9.33923 19.8096 9.61905 19.5298 9.61905 19.1846V18.9108C9.61905 18.5656 9.33923 18.2858 8.99405 18.2858Z" fill="#1B9AAA"/>
<path d="M10.5179 24.381H2.625C2.27982 24.381 2 24.6608 2 25.006V25.2798C2 25.625 2.27982 25.9048 2.625 25.9048H10.5179C10.863 25.9048 11.1429 25.625 11.1429 25.2798V25.006C11.1429 24.6608 10.863 24.381 10.5179 24.381Z" fill="#1B9AAA"/>
<path d="M10.5179 12.1904H2.625C2.27982 12.1904 2 12.4703 2 12.8154V13.0892C2 13.4344 2.27982 13.7142 2.625 13.7142H10.5179C10.863 13.7142 11.1429 13.4344 11.1429 13.0892V12.8154C11.1429 12.4703 10.863 12.1904 10.5179 12.1904Z" fill="#1B9AAA"/>
<path d="M25.756 3.04761H10.244C9.89887 3.04761 9.61905 3.32743 9.61905 3.67261V3.94642C9.61905 4.29159 9.89887 4.57142 10.244 4.57142H25.756C26.1011 4.57142 26.381 4.29159 26.381 3.94642V3.67261C26.381 3.32743 26.1011 3.04761 25.756 3.04761Z" fill="#1B9AAA"/>
<path d="M7.47024 3.04761H2.625C2.27982 3.04761 2 3.32743 2 3.67261V3.94642C2 4.29159 2.27982 4.57142 2.625 4.57142H7.47024C7.81542 4.57142 8.09524 4.29159 8.09524 3.94642V3.67261C8.09524 3.32743 7.81542 3.04761 7.47024 3.04761Z" fill="#1B9AAA"/>
<path d="M10.5179 27.4286H8.72025C8.37507 27.4286 8.09525 27.7084 8.09525 28.0536V28.3274C8.09525 28.6726 8.37507 28.9524 8.72025 28.9524H10.5179C10.863 28.9524 11.1429 28.6726 11.1429 28.3274V28.0536C11.1429 27.7084 10.863 27.4286 10.5179 27.4286Z" fill="#1B9AAA"/>
<path d="M10.5179 9.14282H8.72025C8.37507 9.14282 8.09525 9.42264 8.09525 9.76782V10.0416C8.09525 10.3868 8.37507 10.6666 8.72025 10.6666H10.5179C10.863 10.6666 11.1429 10.3868 11.1429 10.0416V9.76782C11.1429 9.42264 10.863 9.14282 10.5179 9.14282Z" fill="#1B9AAA"/>
<path d="M5.94643 27.4286H2.625C2.27982 27.4286 2 27.7084 2 28.0536V28.3274C2 28.6726 2.27982 28.9524 2.625 28.9524H5.94643C6.29161 28.9524 6.57143 28.6726 6.57143 28.3274V28.0536C6.57143 27.7084 6.29161 27.4286 5.94643 27.4286Z" fill="#1B9AAA"/>
<path d="M5.94643 9.14282H2.625C2.27982 9.14282 2 9.42264 2 9.76782V10.0416C2 10.3868 2.27982 10.6666 2.625 10.6666H5.94643C6.29161 10.6666 6.57143 10.3868 6.57143 10.0416V9.76782C6.57143 9.42264 6.29161 9.14282 5.94643 9.14282Z" fill="#1B9AAA"/>
<path d="M27.2798 15.238H14.8155C14.4703 15.238 14.1905 15.5179 14.1905 15.863V16.1368C14.1905 16.482 14.4703 16.7618 14.8155 16.7618H27.2798C27.625 16.7618 27.9048 16.482 27.9048 16.1368V15.863C27.9048 15.5179 27.625 15.238 27.2798 15.238Z" fill="#1B9AAA"/>
<path d="M12.0417 15.238H7.19644C6.85126 15.238 6.57144 15.5179 6.57144 15.863V16.1368C6.57144 16.482 6.85126 16.7618 7.19644 16.7618H12.0417C12.3869 16.7618 12.6667 16.482 12.6667 16.1368V15.863C12.6667 15.5179 12.3869 15.238 12.0417 15.238Z" fill="#1B9AAA"/>
<path d="M4.42262 15.238H2.625C2.27982 15.238 2 15.5179 2 15.863V16.1368C2 16.482 2.27982 16.7618 2.625 16.7618H4.42262C4.7678 16.7618 5.04762 16.482 5.04762 16.1368V15.863C5.04762 15.5179 4.7678 15.238 4.42262 15.238Z" fill="#1B9AAA"/>
<path d="M22.7083 6.09521H16.3393C15.9941 6.09521 15.7143 6.37504 15.7143 6.72021V6.99402C15.7143 7.3392 15.9941 7.61902 16.3393 7.61902H22.7083C23.0535 7.61902 23.3333 7.3392 23.3333 6.99402V6.72021C23.3333 6.37504 23.0535 6.09521 22.7083 6.09521Z" fill="#1B9AAA"/>
<path d="M13.5655 6.09521H2.625C2.27982 6.09521 2 6.37504 2 6.72021V6.99402C2 7.3392 2.27982 7.61902 2.625 7.61902H13.5655C13.9107 7.61902 14.1905 7.3392 14.1905 6.99402V6.72021C14.1905 6.37504 13.9107 6.09521 13.5655 6.09521Z" fill="#1B9AAA"/>
<path d="M21.1845 21.3334H7.19644C6.85126 21.3334 6.57144 21.6132 6.57144 21.9584V22.2322C6.57144 22.5774 6.85126 22.8572 7.19644 22.8572H21.1845C21.5297 22.8572 21.8095 22.5774 21.8095 22.2322V21.9584C21.8095 21.6132 21.5297 21.3334 21.1845 21.3334Z" fill="#1B9AAA"/>
<path d="M4.42262 21.3334H2.625C2.27982 21.3334 2 21.6132 2 21.9584V22.2322C2 22.5774 2.27982 22.8572 2.625 22.8572H4.42262C4.7678 22.8572 5.04762 22.5774 5.04762 22.2322V21.9584C5.04762 21.6132 4.7678 21.3334 4.42262 21.3334Z" fill="#1B9AAA"/>
<path d="M28.8036 9.14282H20.9107C20.5655 9.14282 20.2857 9.42264 20.2857 9.76782V10.0416C20.2857 10.3868 20.5655 10.6666 20.9107 10.6666H28.8036C29.1487 10.6666 29.4286 10.3868 29.4286 10.0416V9.76782C29.4286 9.42264 29.1487 9.14282 28.8036 9.14282Z" fill="#1B9AAA"/>
<path d="M28.8036 12.1904H20.9107C20.5655 12.1904 20.2857 12.4703 20.2857 12.8154V13.0892C20.2857 13.4344 20.5655 13.7142 20.9107 13.7142H28.8036C29.1487 13.7142 29.4286 13.4344 29.4286 13.0892V12.8154C29.4286 12.4703 29.1487 12.1904 28.8036 12.1904Z" fill="#1B9AAA"/>
<path d="M21.1845 0H2.625C2.27982 0 2 0.279822 2 0.625V0.89881C2 1.24399 2.27982 1.52381 2.625 1.52381H21.1845C21.5297 1.52381 21.8095 1.24399 21.8095 0.89881V0.625C21.8095 0.279822 21.5297 0 21.1845 0Z" fill="#1B9AAA"/>
</svg>
