<svg width="32" height="32" viewBox="0 0 32 32" fill="none" xmlns="http://www.w3.org/2000/svg">
<path d="M22.8566 19.4928C22.095 19.1693 21.3309 18.9228 20.6445 18.5381C18.0155 17.0622 16.6078 13.9873 17.1315 10.9796C17.65 8.00169 19.9941 5.61306 22.9178 5.03863C27.3103 4.17481 30.9554 7.2489 31.6129 11.1326C31.9722 13.252 31.6566 15.3442 31.062 17.3805C29.6544 22.2023 26.4229 25.2668 21.7331 26.8817C21.4769 26.97 21.2111 27.0566 20.9444 27.081C20.2651 27.1431 19.7457 26.8511 19.4397 26.2478C19.1346 25.6454 19.2247 25.0631 19.6452 24.5333C20.1068 23.9519 20.5868 23.3827 21.024 22.7838C21.7785 21.7477 22.4002 20.6338 22.8566 19.4928Z" fill="#1B9AAA"/>
<path d="M6.15879 19.5156C5.34567 19.1737 4.60076 18.9385 3.93278 18.5652C1.29671 17.0937 -0.1599 14.0179 0.348078 11.102C0.890155 7.98423 3.17912 5.62182 6.19376 5.03341C10.5015 4.19319 14.0556 7.16674 14.8233 10.9394C15.1249 12.4205 14.9771 13.9007 14.7498 15.3713C14.3511 17.9541 13.4104 20.3138 11.7361 22.3484C9.80644 24.6916 7.32513 26.1866 4.43988 27.047C3.80076 27.2376 3.12491 26.956 2.75595 26.3903C2.37999 25.815 2.42458 25.1278 2.86174 24.5595C3.48076 23.7552 4.13999 22.9761 4.69343 22.1281C5.24338 21.2835 5.68666 20.3681 6.15879 19.5156Z" fill="#1B9AAA"/>
</svg>
