<svg width="32" height="32" viewBox="0 0 32 32" fill="none" xmlns="http://www.w3.org/2000/svg">
<g clip-path="url(#clip0_606_4766)">
<path d="M24.4009 22.3204C24.6654 22.2735 24.9189 22.4431 24.978 22.7033L24.9812 22.7187L25.0094 22.8651C25.9238 27.6724 25.2797 30.0761 23.0771 30.0761C20.922 30.0761 18.1787 28.025 14.8471 23.923C14.7735 23.8323 14.7338 23.7189 14.7348 23.6021C14.7372 23.3301 14.9555 23.1106 15.2255 23.1047L15.2411 23.1046L15.4166 23.1058C16.8186 23.1134 18.1815 23.0645 19.5053 22.9592C21.0681 22.8348 22.7 22.6219 24.4009 22.3204ZM9.27429 18.6866L9.28274 18.7008L9.37077 18.8545C10.0762 20.0809 10.8112 21.245 11.5758 22.3467C12.4762 23.6441 13.4887 24.9576 14.6134 26.287C14.7874 26.4927 14.7675 26.798 14.5712 26.9795L14.5584 26.9909L14.4453 27.0883C10.7242 30.2767 8.3056 30.9132 7.18955 28.9978C6.09712 27.123 6.49319 23.714 8.37776 18.7708C8.41917 18.6622 8.497 18.5713 8.59796 18.5137C8.83391 18.379 9.13308 18.4568 9.27429 18.6866ZM26.2892 11.593L26.3044 11.5979L26.4445 11.6463C31.0376 13.2441 32.7826 14.9999 31.6796 16.9139C30.6008 18.7859 27.4646 20.1488 22.2711 21.0027C22.1552 21.0217 22.0364 20.9996 21.9352 20.9401C21.6962 20.7996 21.6164 20.492 21.7569 20.253C22.5008 18.9877 23.1707 17.7287 23.7668 16.4759C24.4428 15.0552 25.0772 13.5303 25.6699 11.9011C25.7598 11.6541 26.0238 11.52 26.2739 11.5885L26.2892 11.593ZM10.0648 10.7885C10.3038 10.929 10.3836 11.2367 10.2431 11.4756C9.49924 12.741 8.82928 14 8.23323 15.2527C7.55723 16.6734 6.92285 18.1984 6.33007 19.8275C6.23837 20.0796 5.96534 20.2141 5.71081 20.1357L5.69556 20.1307L5.55551 20.0823C0.962407 18.4846 -0.782632 16.7287 0.320392 14.8147C1.39918 12.9428 4.53536 11.5799 9.72894 10.726C9.84475 10.7069 9.96358 10.7291 10.0648 10.7885ZM24.8104 2.91904C25.9029 4.79389 25.5068 8.20289 23.6222 13.146C23.5808 13.2547 23.503 13.3456 23.402 13.4032C23.1661 13.5378 22.8669 13.4601 22.7257 13.2303L22.7173 13.2161L22.6292 13.0624C21.9238 11.8359 21.1888 10.6719 20.4242 9.57017C19.5238 8.27275 18.5113 6.95932 17.3866 5.62987C17.2126 5.42421 17.2325 5.11893 17.4288 4.93738L17.4416 4.92596L17.5547 4.82856C21.2758 1.64018 23.6944 1.00367 24.8104 2.91904ZM9.11116 1.77808C11.2662 1.77808 14.0095 3.82911 17.3411 7.93119C17.4147 8.02182 17.4545 8.13528 17.4535 8.25204C17.451 8.52402 17.2328 8.74359 16.9627 8.74948L16.9471 8.74959L16.7716 8.74834C15.3697 8.74074 14.0068 8.78962 12.6829 8.89499C11.1201 9.01936 9.48828 9.23228 7.78731 9.53372C7.5228 9.5806 7.26932 9.41102 7.21026 9.15085L7.20702 9.13544L7.17883 8.98903C6.26445 4.18173 6.90856 1.77808 9.11116 1.77808Z" fill="#1B9AAA"/>
<path d="M13.7235 10.3741H18.0265C18.6558 10.3741 19.237 10.7107 19.5502 11.2565L21.7108 15.0212C22.0216 15.5628 22.0216 16.2286 21.7108 16.7702L19.5502 20.5349C19.237 21.0807 18.6558 21.4173 18.0265 21.4173H13.7235C13.0942 21.4173 12.5129 21.0807 12.1997 20.5349L10.0391 16.7702C9.72832 16.2286 9.72832 15.5628 10.0391 15.0212L12.1997 11.2565C12.5129 10.7107 13.0942 10.3741 13.7235 10.3741ZM17.3706 11.5104C18.0003 11.5104 18.5818 11.8473 18.8949 12.3936L20.4015 15.022C20.7117 15.5632 20.7117 16.2282 20.4015 16.7694L18.8949 19.3978C18.5818 19.9441 18.0003 20.281 17.3706 20.281H14.3793C13.7497 20.281 13.1682 19.9441 12.8551 19.3978L11.3484 16.7694C11.0383 16.2282 11.0383 15.5632 11.3484 15.022L12.8551 12.3936C13.1682 11.8473 13.7497 11.5104 14.3793 11.5104H17.3706ZM16.6638 12.7532H15.0862C14.4572 12.7532 13.8762 13.0895 13.5628 13.6348L12.7667 15.0205C12.4553 15.5624 12.4553 16.229 12.7667 16.771L13.5628 18.1566C13.8762 18.702 14.4572 19.0382 15.0862 19.0382H16.6638C17.2928 19.0382 17.8737 18.702 18.1871 18.1566L18.9832 16.771C19.2946 16.229 19.2946 15.5624 18.9832 15.0205L18.1871 13.6348C17.8737 13.0895 17.2928 12.7532 16.6638 12.7532ZM15.9831 13.9427C16.6116 13.9427 17.1923 14.2785 17.5058 14.8232L17.6187 15.0193C17.9309 15.5618 17.9309 16.2296 17.6187 16.7721L17.5058 16.9682C17.1923 17.5129 16.6116 17.8487 15.9831 17.8487H15.7668C15.1383 17.8487 14.5577 17.5129 14.2441 16.9682L14.1313 16.7721C13.819 16.2296 13.819 15.5618 14.1313 15.0193L14.2441 14.8232C14.5577 14.2785 15.1383 13.9427 15.7668 13.9427H15.9831ZM15.8753 15.1145C15.5955 15.1145 15.3375 15.2634 15.1979 15.5051C15.0582 15.7468 15.0582 16.0446 15.1979 16.2863C15.3375 16.528 15.5955 16.6769 15.8747 16.6769C16.1544 16.6769 16.4124 16.528 16.5521 16.2863C16.6917 16.0446 16.6917 15.7468 16.5521 15.5051C16.4124 15.2634 16.1544 15.1145 15.8753 15.1145ZM9.53725 15.8957H10.9437H9.53725Z" fill="#1B9AAA"/>
</g>
<defs>
<clipPath id="clip0_606_4766">
<rect width="32" height="32" fill="white"/>
</clipPath>
</defs>
</svg>
