<svg width="32" height="32" viewBox="0 0 32 32" fill="none" xmlns="http://www.w3.org/2000/svg">
<path d="M24.7597 12.7441C23.8484 12.4576 23.3779 12.5542 22.4221 12.4497C20.9445 12.2886 20.3559 11.7111 20.1062 10.2249C19.9664 9.39528 20.1314 8.18054 19.7747 7.42849C19.0924 5.99451 17.4959 5.35138 15.892 5.71846C14.5378 6.02883 13.4111 7.38223 13.3487 8.77145C13.2773 10.3576 14.1811 11.711 15.733 12.1781C16.4703 12.4004 17.2536 12.5123 18.0236 12.569C19.4357 12.672 19.5443 13.457 19.9263 14.1031C20.1671 14.5104 20.4005 14.9118 20.4005 16.1265C20.4005 17.3411 20.1656 17.7425 19.9263 18.1499C19.5443 18.7945 19.0731 19.2168 17.6609 19.3212C16.8909 19.3779 16.1061 19.4898 15.3703 19.7122C13.8184 20.1807 12.9146 21.5326 12.986 23.1188C13.0484 24.508 14.1751 25.8614 15.5293 26.1718C17.1332 26.5403 18.7297 25.8957 19.412 24.4618C19.7702 23.7097 19.9664 22.8577 20.1062 22.028C20.3574 20.5418 20.946 19.9643 22.4221 19.8032C23.3779 19.6987 24.3671 19.8032 25.2627 19.2943C26.2092 18.6028 27.0548 17.5649 27.0548 16.1265C27.0548 14.688 26.1436 13.1798 24.7597 12.7441Z" fill="#1B9AAA"/>
<path d="M9.5999 19.4976C7.73736 19.4976 6.21808 17.9754 6.21808 16.1094C6.21808 14.2434 7.73736 12.7213 9.5999 12.7213C11.4624 12.7213 12.9817 14.2434 12.9817 16.1094C12.9817 17.9739 11.4609 19.4976 9.5999 19.4976Z" fill="#1B9AAA"/>
<path d="M3.36987 26.3831C1.51034 26.3786 -0.00445746 24.8505 9.85571e-06 22.983C0.00449699 21.1185 1.52974 19.6009 3.39375 19.6068C5.25477 19.6113 6.76957 21.1394 6.76361 23.0069C6.75911 24.8699 5.23387 26.3875 3.36987 26.3831Z" fill="#1B9AAA"/>
<path d="M28.4983 26.383C26.6328 26.3934 25.1017 24.8818 25.0911 23.0203C25.0808 21.1514 26.5895 19.6174 28.4475 19.6069C30.313 19.5964 31.8442 21.108 31.8547 22.9695C31.8651 24.837 30.3563 26.3725 28.4983 26.383Z" fill="#1B9AAA"/>
</svg>
