<svg width="32" height="32" viewBox="0 0 32 32" fill="none" xmlns="http://www.w3.org/2000/svg">
<g clip-path="url(#clip0_606_4765)">
<path d="M24.8435 2.23159H19.0554C18.8486 1.58415 18.4414 1.01921 17.8925 0.618353C17.3436 0.217494 16.6815 0.00146484 16.0019 0.00146484C15.3222 0.00146484 14.6601 0.217494 14.1113 0.618353C13.5624 1.01921 13.1551 1.58415 12.9483 2.23159H7.15649C6.06141 2.23159 5.01119 2.6666 4.23686 3.44094C3.46253 4.21527 3.02751 5.26549 3.02751 6.36056V27.8725C3.02751 28.9676 3.46253 30.0178 4.23686 30.7921C5.01119 31.5665 6.06141 32.0015 7.15649 32.0015H24.8435C25.9386 32.0015 26.9888 31.5665 27.7631 30.7921C28.5375 30.0178 28.9725 28.9676 28.9725 27.8725V6.36056C28.9725 5.26549 28.5375 4.21527 27.7631 3.44094C26.9888 2.6666 25.9386 2.23159 24.8435 2.23159ZM13.2373 2.98231C13.3246 2.98425 13.4099 2.9557 13.4784 2.90158C13.5469 2.84746 13.5944 2.77114 13.6127 2.68577C13.732 2.13836 14.035 1.64823 14.4713 1.29677C14.9076 0.945307 15.451 0.753663 16.0113 0.753663C16.5715 0.753663 17.1149 0.945307 17.5512 1.29677C17.9875 1.64823 18.2905 2.13836 18.4098 2.68577C18.4281 2.77114 18.4756 2.84746 18.5441 2.90158C18.6126 2.9557 18.6979 2.98425 18.7852 2.98231H20.8046V5.44092C20.8046 5.73958 20.686 6.026 20.4748 6.23718C20.2636 6.44837 19.9772 6.56701 19.6785 6.56701H12.3402C12.0416 6.56701 11.7551 6.44837 11.544 6.23718C11.3328 6.026 11.2141 5.73958 11.2141 5.44092V2.98231H13.2373ZM28.2218 27.8725C28.2218 28.7685 27.8658 29.6277 27.2323 30.2613C26.5987 30.8948 25.7395 31.2507 24.8435 31.2507H7.15649C6.26052 31.2507 5.40125 30.8948 4.7677 30.2613C4.13416 29.6277 3.77823 28.7685 3.77823 27.8725V6.36056C3.77823 5.46459 4.13416 4.60532 4.7677 3.97178C5.40125 3.33823 6.26052 2.98231 7.15649 2.98231H10.4634V5.44092C10.4634 5.93868 10.6612 6.41606 11.0131 6.76803C11.3651 7.11999 11.8425 7.31773 12.3402 7.31773H19.6598C20.1575 7.31773 20.6349 7.11999 20.9869 6.76803C21.3388 6.41606 21.5366 5.93868 21.5366 5.44092V2.98231H24.8435C25.7395 2.98231 26.5987 3.33823 27.2323 3.97178C27.8658 4.60532 28.2218 5.46459 28.2218 6.36056V27.8725Z" fill="#1B9AAA"/>
<path d="M14.7707 14.4683H8.16433C8.06478 14.4683 7.96931 14.5078 7.89891 14.5782C7.82852 14.6486 7.78897 14.7441 7.78897 14.8436C7.78897 14.9432 7.82852 15.0386 7.89891 15.109C7.96931 15.1794 8.06478 15.219 8.16433 15.219H14.7707C14.8702 15.219 14.9657 15.1794 15.0361 15.109C15.1065 15.0386 15.146 14.9432 15.146 14.8436C15.146 14.7441 15.1065 14.6486 15.0361 14.5782C14.9657 14.5078 14.8702 14.4683 14.7707 14.4683Z" fill="#1B9AAA"/>
<path d="M24.1547 14.4683H17.5484C17.4488 14.4683 17.3533 14.5078 17.2829 14.5782C17.2126 14.6486 17.173 14.7441 17.173 14.8436C17.173 14.9432 17.2126 15.0386 17.2829 15.109C17.3533 15.1794 17.4488 15.219 17.5484 15.219H24.1547C24.2543 15.219 24.3497 15.1794 24.4201 15.109C24.4905 15.0386 24.5301 14.9432 24.5301 14.8436C24.5301 14.7441 24.4905 14.6486 24.4201 14.5782C24.3497 14.5078 24.2543 14.4683 24.1547 14.4683Z" fill="#1B9AAA"/>
<path d="M24.1735 23.3154H17.5484C17.4488 23.3154 17.3533 23.355 17.2829 23.4254C17.2126 23.4958 17.173 23.5912 17.173 23.6908C17.173 23.7903 17.2126 23.8858 17.2829 23.9562C17.3533 24.0266 17.4488 24.0662 17.5484 24.0662H24.1735C24.273 24.0662 24.3685 24.0266 24.4389 23.9562C24.5093 23.8858 24.5488 23.7903 24.5488 23.6908C24.5488 23.5912 24.5093 23.4958 24.4389 23.4254C24.3685 23.355 24.273 23.3154 24.1735 23.3154Z" fill="#1B9AAA"/>
<path d="M14.7895 23.3154H8.16433C8.06478 23.3154 7.96931 23.355 7.89891 23.4254C7.82852 23.4958 7.78897 23.5912 7.78897 23.6908C7.78897 23.7903 7.82852 23.8858 7.89891 23.9562C7.96931 24.0266 8.06478 24.0662 8.16433 24.0662H14.7895C14.889 24.0662 14.9845 24.0266 15.0549 23.9562C15.1253 23.8858 15.1648 23.7903 15.1648 23.6908C15.1648 23.5912 15.1253 23.4958 15.0549 23.4254C14.9845 23.355 14.889 23.3154 14.7895 23.3154Z" fill="#1B9AAA"/>
</g>
<defs>
<clipPath id="clip0_606_4765">
<rect width="32" height="32" fill="white"/>
</clipPath>
</defs>
</svg>
