<svg width="32" height="32" viewBox="0 0 32 32" fill="none" xmlns="http://www.w3.org/2000/svg">
<g clip-path="url(#clip0_606_5284)">
<path d="M6.625 32C7.88125 29.9962 9.1 27.9675 10.4025 25.995C11.8888 23.745 13.4187 21.5212 14.9913 19.33C16.43 17.3262 18.1112 15.5387 20.0487 13.9937C20.8237 13.3762 21.5462 12.6937 22.2862 12.0324C22.9737 11.4174 23.21 10.6999 22.7825 9.82495C22.5662 9.38245 22.3863 8.92245 22.19 8.4712L22.0287 8.53245C22.13 8.9937 22.3062 9.45495 22.3125 9.91745C22.3188 10.3599 22.2625 10.8799 22.0287 11.2312C21.7287 11.6837 21.1775 11.5437 20.725 11.3624C19.3863 10.8274 17.5087 8.6462 17.7338 6.9537C17.835 6.1887 17.685 5.4237 18.2788 4.7387C18.9313 3.98495 19.73 3.6137 20.6625 3.5137C22.5675 3.30995 24.3325 3.79245 25.9475 4.7962C26.2425 4.97995 26.5 5.29245 26.6675 5.60245C28.06 8.1912 28.2588 10.9112 27.465 13.7149C26.735 16.2912 25.1125 18.1974 22.9075 19.65C22.2575 20.0774 22.2212 20.1975 22.58 20.9012C24.2975 24.2637 26.0288 27.6187 27.7213 30.9937C27.8575 31.2662 27.7475 31.6637 27.7512 32.0025H6.625V32Z" fill="#1B9AAA"/>
<path d="M19.0025 0C19.1325 0.08375 19.2525 0.21625 19.3938 0.24375C21.8913 0.73625 23.92 2.01125 25.5725 3.91875C25.6187 3.9725 25.615 4.06875 25.6725 4.29875C24.5375 3.33 23.3387 2.75875 22.005 2.5775C19.8962 2.2925 17.9412 2.48375 16.3875 4.265C14.6213 6.29 13.3113 8.595 12.0063 10.9087C10.1663 14.1737 8.335 17.445 6.5775 20.7537C5.66625 22.4687 4.91875 24.2712 4.055 26.1225C4.03875 25.935 4.01875 25.8125 4.01875 25.69C4.01625 17.4662 4.01625 9.24375 4.015 1.02C4.015 0.68125 4.005 0.34125 4 0C9.00125 0 14.0012 0 19.0025 0Z" fill="#1B9AAA"/>
</g>
<defs>
<clipPath id="clip0_606_5284">
<rect width="32" height="32" fill="white"/>
</clipPath>
</defs>
</svg>
