<svg width="32" height="32" viewBox="0 0 32 32" fill="none" xmlns="http://www.w3.org/2000/svg">
<g clip-path="url(#clip0_33_1852)">
<path fill-rule="evenodd" clip-rule="evenodd" d="M4.61833 16.4455C4.59829 16.4978 4.62548 16.5087 4.63193 16.518C4.69183 16.5613 4.75266 16.5928 4.81362 16.628C5.13948 16.8004 5.44658 16.8508 5.76775 16.8508C6.42182 16.8508 6.82856 16.5026 6.82856 15.9423V15.9313C6.82856 15.4132 6.36907 15.2245 5.94006 15.0897L5.88392 15.0715C5.55923 14.9663 5.27908 14.8746 5.27908 14.6613V14.6504C5.27908 14.4675 5.44318 14.3327 5.69637 14.3327C5.97769 14.3327 6.31293 14.4264 6.52743 14.5449C6.52743 14.5449 6.59096 14.5859 6.61405 14.5246C6.6266 14.4914 6.73596 14.1987 6.74768 14.1659C6.76011 14.1316 6.7383 14.1057 6.71592 14.0923C6.46976 13.9423 6.12984 13.8403 5.77819 13.8403L5.7129 13.8405C5.11392 13.8405 4.69546 14.2027 4.69546 14.7208V14.732C4.69546 15.2782 5.15729 15.4564 5.58865 15.5794L5.65804 15.601C5.97218 15.6976 6.24412 15.7815 6.24412 16.0019V16.0129C6.24412 16.2157 6.06712 16.3669 5.78346 16.3669C5.67316 16.3669 5.32163 16.365 4.94068 16.1242C4.89461 16.0974 4.86836 16.0781 4.83284 16.0564C4.81408 16.045 4.7672 16.0245 4.7468 16.0859L4.61786 16.4446M14.1944 16.4446C14.1744 16.4969 14.2016 16.5078 14.2083 16.517C14.2679 16.5604 14.329 16.5918 14.3899 16.6271C14.7158 16.7994 15.0229 16.8498 15.3441 16.8498C15.9981 16.8498 16.4049 16.5017 16.4049 15.9414V15.9304C16.4049 15.4123 15.9466 15.2236 15.5164 15.0888L15.4602 15.0706C15.1355 14.9653 14.8554 14.8737 14.8554 14.6603V14.6494C14.8554 14.4666 15.0195 14.3318 15.2727 14.3318C15.554 14.3318 15.8881 14.4254 16.1038 14.5439C16.1038 14.5439 16.1673 14.585 16.1905 14.5237C16.2029 14.4905 16.3124 14.1978 16.3229 14.165C16.3355 14.1306 16.3136 14.1047 16.2913 14.0914C16.0451 13.9413 15.7052 13.8394 15.3536 13.8394L15.2882 13.8396C14.6892 13.8396 14.2707 14.2018 14.2707 14.7199V14.731C14.2707 15.2772 14.7326 15.4554 15.1639 15.5785L15.2332 15.6001C15.5485 15.6966 15.8193 15.7806 15.8193 16.0009V16.012C15.8193 16.2147 15.6423 16.3659 15.3586 16.3659C15.2481 16.3659 14.8956 16.3641 14.5158 16.1233C14.4698 16.0965 14.4428 16.0779 14.4079 16.0554C14.396 16.0479 14.3408 16.0264 14.322 16.085L14.193 16.4437M20.7337 15.3465C20.7337 15.663 20.6746 15.9127 20.559 16.0897C20.4437 16.2643 20.2695 16.3499 20.0269 16.3499C19.7842 16.3499 19.6107 16.265 19.497 16.0908C19.3825 15.915 19.3247 15.6642 19.3247 15.3477C19.3247 15.0312 19.3829 14.7827 19.497 14.6081C19.6105 14.4346 19.7831 14.3514 20.0269 14.3514C20.2707 14.3514 20.4441 14.4354 20.559 14.6081C20.6753 14.7827 20.7337 15.0312 20.7337 15.3477M21.2799 14.7604C21.2261 14.5788 21.1428 14.4193 21.0314 14.2857C20.9199 14.1521 20.7794 14.0442 20.6118 13.9669C20.4453 13.8889 20.2484 13.8497 20.0257 13.8497C19.803 13.8497 19.6072 13.8892 19.4396 13.9669C19.2732 14.0447 19.1313 14.1521 19.02 14.2857C18.9089 14.4193 18.8254 14.5788 18.7715 14.7604C18.7181 14.941 18.6911 15.1379 18.6911 15.3477C18.6911 15.5575 18.7181 15.7544 18.7715 15.9349C18.825 16.1166 18.9086 16.276 19.02 16.4097C19.1314 16.5433 19.2732 16.65 19.4396 16.7262C19.6072 16.8021 19.8041 16.8408 20.0257 16.8408C20.2472 16.8408 20.4441 16.8021 20.6106 16.7262C20.777 16.6502 20.9189 16.5433 21.0302 16.4097C21.1415 16.276 21.2248 16.1166 21.2787 15.9349C21.3319 15.7544 21.359 15.5575 21.359 15.3477C21.359 15.139 21.3319 14.941 21.2787 14.7604M25.7681 16.2608C25.7502 16.2077 25.6984 16.2278 25.6984 16.2278C25.619 16.2581 25.5343 16.2862 25.444 16.3003C25.353 16.3146 25.2518 16.3218 25.1451 16.3218C24.8814 16.3218 24.6704 16.2431 24.5203 16.0873C24.3691 15.9314 24.2847 15.6806 24.2859 15.3407C24.2867 15.0312 24.3615 14.7991 24.4957 14.621C24.6282 14.4451 24.8321 14.3537 25.1017 14.3537C25.3268 14.3537 25.4991 14.3798 25.6796 14.4363C25.6796 14.4363 25.7224 14.455 25.7429 14.3986C25.7908 14.2661 25.8262 14.1712 25.8777 14.0258C25.8922 13.9842 25.8566 13.9667 25.8436 13.9616C25.7728 13.9339 25.6056 13.8886 25.479 13.8695C25.3607 13.8514 25.2235 13.8421 25.0688 13.8421C24.8391 13.8421 24.6351 13.8813 24.4604 13.9591C24.2858 14.0369 24.1381 14.1444 24.0209 14.278C23.9037 14.4116 23.8146 14.571 23.7548 14.7527C23.6956 14.9332 23.6657 15.1313 23.6657 15.3411C23.6657 15.7936 23.7876 16.1605 24.0291 16.4289C24.2706 16.6985 24.6339 16.8345 25.1075 16.8345C25.3876 16.8345 25.6748 16.7778 25.8811 16.6961C25.8811 16.6961 25.9205 16.6772 25.9034 16.6312L25.7686 16.2608M26.7239 15.0418C26.75 14.8659 26.7982 14.7194 26.8739 14.6057C26.9873 14.4322 27.1599 14.3373 27.4026 14.3373C27.6452 14.3373 27.8058 14.4327 27.9207 14.6057C27.9969 14.72 28.0301 14.8718 28.0426 15.0418L26.718 15.0415L26.7239 15.0418ZM28.5642 14.6549C28.5176 14.4803 28.4024 14.3033 28.3274 14.2224C28.2078 14.0947 28.0918 14.0044 27.9758 13.9552C27.8082 13.8839 27.628 13.8474 27.4459 13.8477C27.215 13.8477 27.0052 13.8867 26.8352 13.9661C26.6653 14.046 26.5223 14.1548 26.4097 14.2908C26.2973 14.4267 26.2128 14.5873 26.1589 14.7713C26.105 14.953 26.0778 15.1523 26.0778 15.3609C26.0778 15.5743 26.106 15.7724 26.1616 15.9517C26.2177 16.1322 26.3081 16.2905 26.43 16.4217C26.5519 16.5542 26.7078 16.6573 26.8954 16.73C27.0817 16.8021 27.308 16.8395 27.567 16.8387C28.1015 16.8369 28.3828 16.7179 28.4977 16.6535C28.5182 16.642 28.5376 16.6222 28.5134 16.5651L28.3927 16.2263C28.3742 16.1758 28.3231 16.1941 28.3231 16.1941C28.1906 16.2436 28.0031 16.3324 27.5635 16.3313C27.2763 16.3308 27.0642 16.246 26.9305 16.1132C26.7946 15.9773 26.7266 15.7792 26.716 15.4978L28.568 15.4993C28.568 15.4993 28.6168 15.4988 28.6218 15.4512C28.6238 15.4315 28.6853 15.0714 28.5666 14.6553L28.5642 14.6549ZM11.9195 15.0418C11.9456 14.8659 11.9939 14.7194 12.0695 14.6057C12.183 14.4322 12.3555 14.3373 12.5982 14.3373C12.8408 14.3373 13.0014 14.4327 13.1163 14.6057C13.1923 14.72 13.2256 14.8718 13.2382 15.0418L11.9136 15.0415L11.9195 15.0418ZM13.7598 14.6549C13.7134 14.4803 13.598 14.3033 13.523 14.2224C13.4034 14.0947 13.2874 14.0044 13.1714 13.9552C13.0038 13.8839 12.8236 13.8474 12.6415 13.8477C12.4106 13.8477 12.2008 13.8867 12.0308 13.9661C11.8609 14.046 11.7179 14.1548 11.6054 14.2908C11.4932 14.4267 11.4084 14.5873 11.3545 14.7713C11.3007 14.953 11.2736 15.1523 11.2736 15.3609C11.2736 15.5743 11.3016 15.7724 11.3576 15.9517C11.4136 16.1322 11.5041 16.2905 11.6248 16.4217C11.7467 16.5542 11.9026 16.6573 12.0902 16.73C12.2765 16.8021 12.5016 16.8395 12.7618 16.8387C13.2963 16.8369 13.5776 16.7179 13.6925 16.6535C13.7129 16.642 13.7324 16.6222 13.7081 16.5651L13.5874 16.2263C13.5687 16.1758 13.5176 16.1941 13.5176 16.1941C13.3852 16.2436 13.1976 16.3324 12.7581 16.3313C12.472 16.3308 12.2587 16.246 12.1251 16.1132C11.9891 15.9773 11.9211 15.7792 11.9106 15.4978L13.7626 15.4993C13.7626 15.4993 13.8114 15.4988 13.8164 15.4512C13.8184 15.4315 13.8798 15.0714 13.7611 14.6553L13.7598 14.6549ZM7.92242 16.2491C7.84986 16.1912 7.83978 16.177 7.81575 16.1394C7.77907 16.0828 7.76031 16.0022 7.76031 15.8991C7.76031 15.7373 7.81423 15.6201 7.92559 15.5416C7.92441 15.5418 8.085 15.4033 8.46244 15.4079C8.63043 15.4109 8.79804 15.4252 8.96412 15.4507V16.2912H8.96436C8.96436 16.2912 8.72992 16.3417 8.46501 16.3576C8.08875 16.3802 7.9223 16.2493 7.92348 16.2497L7.92242 16.2491ZM8.65854 14.948C8.58352 14.9425 8.48623 14.9398 8.37019 14.9398C8.21194 14.9398 8.05839 14.9595 7.91539 14.9982C7.77121 15.0371 7.6411 15.0973 7.52975 15.1775C7.41809 15.2572 7.32624 15.3614 7.26132 15.4823C7.1958 15.6042 7.16239 15.7472 7.16239 15.9089C7.16239 16.073 7.19088 16.2149 7.24714 16.3309C7.30227 16.446 7.38527 16.5455 7.4886 16.6204C7.5914 16.6952 7.71835 16.7505 7.86487 16.7834C8.01022 16.8165 8.17432 16.8333 8.35483 16.8333C8.54472 16.8333 8.73344 16.8173 8.9163 16.7865C9.07204 16.7597 9.22719 16.7295 9.38165 16.696C9.4433 16.6818 9.51175 16.6632 9.51175 16.6632C9.55747 16.6516 9.55395 16.6027 9.55395 16.6027L9.5529 14.9148C9.5529 14.5444 9.45397 14.269 9.25868 14.099C9.06411 13.929 8.77927 13.8435 8.41004 13.8435C8.27172 13.8435 8.04784 13.8622 7.91422 13.8891C7.91422 13.8891 7.51099 13.9674 7.34455 14.0977C7.34455 14.0977 7.30797 14.1202 7.3279 14.1712L7.45918 14.5228C7.47548 14.5684 7.5199 14.5528 7.5199 14.5528C7.5199 14.5528 7.53385 14.5473 7.55026 14.5376C7.90543 14.3442 8.35553 14.3501 8.35553 14.3501C8.5548 14.3501 8.70953 14.3905 8.81268 14.4696C8.9136 14.5471 8.96506 14.6642 8.96506 14.9104V14.9885C8.80682 14.9656 8.6603 14.9523 8.6603 14.9523L8.65854 14.948ZM23.545 13.995C23.5476 13.9888 23.549 13.9822 23.5491 13.9755C23.5491 13.9687 23.5478 13.962 23.5452 13.9558C23.5426 13.9496 23.5388 13.944 23.534 13.9393C23.5292 13.9346 23.5235 13.9309 23.5172 13.9284C23.4857 13.9165 23.3285 13.8833 23.2078 13.8758C22.9757 13.8613 22.8467 13.9004 22.7307 13.9525C22.616 14.0042 22.4892 14.0873 22.4189 14.1834L22.4187 13.9583C22.4187 13.9274 22.3967 13.9024 22.3656 13.9024H21.892C21.8613 13.9024 21.839 13.9274 21.839 13.9583V16.7129C21.8391 16.7278 21.845 16.7421 21.8555 16.7526C21.866 16.7631 21.8803 16.769 21.8952 16.7691H22.3804C22.3953 16.769 22.4096 16.7631 22.4201 16.7526C22.4306 16.742 22.4365 16.7278 22.4365 16.7129V15.3298C22.4365 15.1446 22.4569 14.9605 22.4975 14.8445C22.5376 14.7297 22.5921 14.6382 22.6593 14.5725C22.7234 14.5091 22.8018 14.4621 22.8879 14.4354C22.9687 14.4122 23.0523 14.4005 23.1364 14.4005C23.2331 14.4005 23.3392 14.4253 23.3392 14.4253C23.3748 14.4293 23.3946 14.4075 23.4067 14.3754C23.4384 14.2909 23.5286 14.0378 23.5462 13.9874M19.0126 12.7237C18.9526 12.7056 18.8916 12.6911 18.8299 12.6803C18.7468 12.6664 18.6627 12.6599 18.5786 12.6609C18.2441 12.6609 17.9805 12.7553 17.7954 12.9419C17.6116 13.1271 17.4866 13.4093 17.4239 13.7805L17.4012 13.9058H16.9815C16.9815 13.9058 16.9303 13.9037 16.9195 13.9596L16.8505 14.3441C16.8457 14.3809 16.8616 14.4039 16.9108 14.4036H17.3194L16.9048 16.7178C16.8724 16.9042 16.8352 17.0575 16.7941 17.1737C16.7535 17.2883 16.7139 17.3742 16.6651 17.4366C16.6179 17.497 16.5731 17.5414 16.4959 17.5673C16.4321 17.5887 16.3587 17.5986 16.2783 17.5986C16.2335 17.5986 16.174 17.5911 16.13 17.5823C16.0861 17.5736 16.0632 17.5638 16.0303 17.5499C16.0303 17.5499 15.9823 17.5316 15.9635 17.5797C15.9481 17.619 15.8392 17.9185 15.8263 17.9555C15.8132 17.9921 15.8316 18.0209 15.8548 18.0292C15.9092 18.0487 15.9496 18.0611 16.0237 18.0786C16.1266 18.1028 16.2134 18.1044 16.2946 18.1044C16.4648 18.1044 16.6199 18.0805 16.7485 18.034C16.8779 17.9873 16.9905 17.9058 17.0901 17.7955C17.1979 17.6765 17.2656 17.5519 17.3304 17.382C17.3946 17.2135 17.4492 17.0044 17.4929 16.7607L17.9095 14.4036H18.5185C18.5185 14.4036 18.5699 14.4055 18.5805 14.3498L18.6495 13.9653C18.6543 13.9285 18.6386 13.9056 18.5891 13.9058H17.998C18.0009 13.8924 18.0278 13.6845 18.0956 13.4887C18.1246 13.4052 18.1791 13.3378 18.2253 13.2915C18.2684 13.2474 18.3215 13.2143 18.3801 13.1951C18.4443 13.1753 18.5113 13.1656 18.5786 13.1665C18.6342 13.1665 18.6889 13.1732 18.7305 13.1819C18.7878 13.1941 18.8101 13.2005 18.8251 13.205C18.8853 13.2234 18.8934 13.2056 18.9052 13.1764L19.0466 12.7881C19.0611 12.7464 19.0257 12.7288 19.0126 12.7237ZM10.7519 16.7227C10.7519 16.7537 10.7299 16.7789 10.6989 16.7789H10.2086C10.1776 16.7789 10.1555 16.7537 10.1555 16.7227V12.7763C10.1555 12.7455 10.1776 12.7205 10.2086 12.7205H10.6989C10.7299 12.7205 10.7519 12.7455 10.7519 12.7763V16.7227ZM13.2455 7.30261C14.2746 6.23125 15.707 5.56781 17.2894 5.56781C19.3993 5.56781 21.2279 6.73997 22.2125 8.48649C23.0865 8.09578 24.0332 7.89406 24.9905 7.89455C28.7883 7.89455 31.8711 11.0008 31.8711 14.8337C31.8711 18.6667 28.7883 21.7729 24.9905 21.7729C24.5264 21.7729 24.0739 21.7263 23.6308 21.6381C22.7693 23.1737 21.1224 24.2169 19.2469 24.2169C18.4834 24.2184 17.7296 24.0452 17.0433 23.7105C16.17 25.7618 14.1363 27.2036 11.7686 27.2036C9.29529 27.2036 7.19712 25.6446 6.38833 23.4526C6.02836 23.5286 5.66144 23.5668 5.29354 23.5666C2.35141 23.5666 -0.0280762 21.1519 -0.0280762 18.1864C-0.0280762 16.1937 1.04328 14.4589 2.63273 13.5212C2.29553 12.7444 2.12196 11.9064 2.12284 11.0596C2.12284 7.63691 4.90086 4.87061 8.32357 4.87061C10.328 4.87061 12.1214 5.82592 13.2466 7.3087" fill="#1B9AAA"/>
</g>
<defs>
<clipPath id="clip0_33_1852">
<rect width="32" height="32" fill="white"/>
</clipPath>
</defs>
</svg>
