<svg width="32" height="32" viewBox="0 0 32 32" fill="none" xmlns="http://www.w3.org/2000/svg">
<g clip-path="url(#clip0_21_47)">
<path d="M27.5375 17.7875C26.4187 17.7937 25.45 18.0625 24.6375 18.4625C24.3375 17.8687 24.0375 17.35 23.9875 16.9625C23.9312 16.5125 23.8625 16.2375 23.9312 15.7C24 15.1625 24.3125 14.4 24.3125 14.3375C24.3062 14.2812 24.2437 14.0062 23.6 14C22.9562 13.9937 22.4 14.125 22.3375 14.2937C22.275 14.4625 22.15 14.85 22.0687 15.25C21.9562 15.8375 20.7812 17.9187 20.1125 19.0125C19.8937 18.5875 19.7062 18.2125 19.6687 17.9125C19.6125 17.4625 19.5437 17.1875 19.6125 16.65C19.6812 16.1125 19.9937 15.35 19.9937 15.2875C19.9875 15.2312 19.925 14.9562 19.2812 14.95C18.6375 14.9437 18.0812 15.075 18.0187 15.2437C17.9562 15.4125 17.8875 15.8125 17.75 16.2C17.6187 16.5875 16.0562 20.0625 15.65 20.9687C15.4437 21.4312 15.2625 21.8 15.1312 22.05C15 22.3 15.125 22.0687 15.1125 22.0937C15 22.3062 14.9375 22.425 14.9375 22.425V22.4312C14.85 22.5875 14.7562 22.7375 14.7125 22.7375C14.6812 22.7375 14.6187 22.3187 14.725 21.7437C14.9562 20.5375 15.5187 18.6562 15.5125 18.5875C15.5125 18.5562 15.6187 18.225 15.15 18.0562C14.6937 17.8875 14.5312 18.1687 14.4937 18.1687C14.4562 18.1687 14.425 18.2687 14.425 18.2687C14.425 18.2687 14.9312 16.15 13.4562 16.15C12.5312 16.15 11.2562 17.1562 10.625 18.075C10.225 18.2937 9.37498 18.7562 8.47498 19.25C8.13123 19.4375 7.77498 19.6375 7.43748 19.8187L7.36873 19.7437C5.58123 17.8375 2.27498 16.4875 2.41248 13.925C2.46248 12.9937 2.78748 10.5375 8.76248 7.56248C13.6562 5.12498 17.575 5.79373 18.2562 7.28123C19.225 9.40623 16.1625 13.3562 11.075 13.925C9.13748 14.1437 8.11873 13.3937 7.86248 13.1125C7.59373 12.8187 7.55623 12.8062 7.45623 12.8625C7.29373 12.95 7.39373 13.2125 7.45623 13.3687C7.60623 13.7625 8.23123 14.4625 9.29373 14.8125C10.225 15.1187 12.5 15.2875 15.25 14.225C18.3312 13.0312 20.7375 9.71873 20.0312 6.94998C19.3125 4.13123 14.6375 3.20623 10.2187 4.77498C7.58748 5.71248 4.73748 7.17498 2.68748 9.09373C0.249981 11.3687 -0.137519 13.3562 0.0249811 14.1812C0.593731 17.125 4.64998 19.0437 6.27498 20.4625C6.19373 20.5062 6.11873 20.55 6.04998 20.5875C5.23748 20.9875 2.14373 22.6062 1.36873 24.3187C0.493731 26.2562 1.50623 27.65 2.18123 27.8375C4.26873 28.4187 6.40623 27.375 7.56248 25.6562C8.71248 23.9375 8.57498 21.7062 8.04373 20.6875L8.02498 20.65L8.66248 20.275C9.07498 20.0312 9.48123 19.8062 9.83748 19.6125C9.63748 20.1562 9.49373 20.8 9.41873 21.7375C9.33123 22.8375 9.78123 24.2625 10.375 24.825C10.6375 25.0687 10.95 25.075 11.1437 25.075C11.8312 25.075 12.1437 24.5062 12.4875 23.825C12.9125 22.9937 13.2875 22.0312 13.2875 22.0312C13.2875 22.0312 12.8187 24.6375 14.1 24.6375C14.5687 24.6375 15.0375 24.0312 15.25 23.7187V23.725C15.25 23.725 15.2625 23.7062 15.2875 23.6625C15.3375 23.5875 15.3625 23.5437 15.3625 23.5437V23.5312C15.55 23.2062 15.9687 22.4625 16.5937 21.2312C17.4 19.6437 18.175 17.6562 18.175 17.6562C18.175 17.6562 18.25 18.1437 18.4812 18.9437C18.6187 19.4187 18.9187 19.9375 19.15 20.4437C18.9625 20.7062 18.85 20.8562 18.85 20.8562L18.8562 20.8625C18.7062 21.0625 18.5375 21.275 18.3625 21.4875C17.725 22.25 16.9625 23.1187 16.8625 23.3687C16.7437 23.6625 16.7687 23.8812 17 24.0562C17.1687 24.1812 17.4687 24.2062 17.7875 24.1812C18.3625 24.1437 18.7625 24 18.9625 23.9125C19.275 23.8 19.6312 23.6312 19.975 23.3812C20.6 22.9187 20.9812 22.2625 20.9437 21.3875C20.925 20.9062 20.7687 20.4312 20.575 19.9812C20.6312 19.9 20.6875 19.8187 20.7437 19.7312C21.7312 18.2875 22.4937 16.7 22.4937 16.7C22.4937 16.7 22.5687 17.1875 22.8 17.9875C22.9187 18.3937 23.1562 18.8375 23.3687 19.275C22.4437 20.0312 21.8625 20.9062 21.6625 21.4812C21.2937 22.5437 21.5812 23.025 22.125 23.1375C22.3687 23.1875 22.7187 23.075 22.9812 22.9625C23.3062 22.8562 23.7 22.675 24.0625 22.4062C24.6875 21.9437 25.2875 21.3 25.2562 20.4312C25.2375 20.0312 25.1312 19.6375 24.9875 19.2625C25.775 18.9375 26.7937 18.75 28.0875 18.9062C30.8687 19.2312 31.4187 20.9687 31.3125 21.6937C31.2062 22.4187 30.625 22.8187 30.4312 22.9437C30.2375 23.0625 30.175 23.1062 30.1937 23.1937C30.2187 23.325 30.3062 23.3187 30.475 23.2937C30.7062 23.2562 31.9375 22.7 31.9875 21.3625C32.0625 19.6437 30.4312 17.7687 27.5375 17.7875ZM6.08748 25.0187C5.16873 26.025 3.87498 26.4062 3.32498 26.0812C2.73123 25.7375 2.96248 24.2562 4.09373 23.1875C4.78123 22.5375 5.67498 21.9375 6.26248 21.5687C6.39373 21.4875 6.59373 21.3687 6.83123 21.225C6.86873 21.2 6.89373 21.1875 6.89373 21.1875C6.93748 21.1625 6.98748 21.1312 7.03748 21.1C7.45623 22.625 7.05623 23.9625 6.08748 25.0187ZM12.8062 20.45C12.4875 21.2312 11.8125 23.2375 11.4062 23.125C11.0562 23.0312 10.8437 21.5125 11.3375 20.0125C11.5875 19.2562 12.1187 18.3562 12.4312 18.0062C12.9375 17.4437 13.4875 17.2562 13.625 17.4875C13.7875 17.7875 13.0062 19.9625 12.8062 20.45ZM18.35 23.1C18.2125 23.1687 18.0875 23.2187 18.0312 23.1812C17.9875 23.1562 18.0875 23.0625 18.0875 23.0625C18.0875 23.0625 18.7812 22.3187 19.0562 21.975C19.2125 21.775 19.4 21.5437 19.6 21.2812V21.3562C19.6 22.2562 18.7375 22.8562 18.35 23.1ZM22.625 22.125C22.525 22.05 22.5375 21.8187 22.875 21.0937C23.0062 20.8062 23.3062 20.325 23.825 19.8687C23.8875 20.0562 23.925 20.2375 23.9187 20.4062C23.9125 21.5312 23.1125 21.95 22.625 22.125Z" fill="#1B9AAA"/>
</g>
<defs>
<clipPath id="clip0_21_47">
<rect width="32" height="32" fill="white"/>
</clipPath>
</defs>
</svg>
