<?xml version="1.0" encoding="UTF-8"?>
<svg id="Layer_1" data-name="Layer 1" xmlns="http://www.w3.org/2000/svg" viewBox="0 0 48 48">
  <defs>
    <style>
      .cls-1 {
        fill: #1B9AAA;
      }
    </style>
  </defs>
  <path d="m48,48H0V0h48v48Zm-14.92-37.1c.4.36.8.72,1.2,1.08-7.45,7.41-14.91,14.83-22.36,22.24-.35-.35-.71-.71-1.06-1.06,7.41-7.42,14.81-14.84,22.22-22.26Zm-9.63,24.82c.24.24.49.47.73.71,4.07-4.08,8.13-8.17,12.2-12.25-.06-.05-.12-.1-.17-.16-4.25,3.9-8.5,7.8-12.75,11.7Z"/>
  <path class="cls-1" d="m33.08,10.9c-7.41,7.42-14.81,14.84-22.22,22.26.35.35.71.71,1.06,1.06,7.45-7.41,14.91-14.83,22.36-22.24-.4-.36-.8-.72-1.2-1.08Z"/>
  <path class="cls-1" d="m23.46,35.71c4.25-3.9,8.5-7.8,12.75-11.7.06.05.12.1.17.16-4.07,4.08-8.13,8.17-12.2,12.25-.24-.24-.49-.47-.73-.71Z"/>
</svg>