<svg width="32" height="32" viewBox="0 0 32 32" fill="none" xmlns="http://www.w3.org/2000/svg">
<path d="M8.31563 12.2429C8.31418 12.2444 8.26181 12.2487 8.20072 12.2545C8.096 12.2633 8.03636 12.272 8.03636 12.2764C8.03636 12.2778 8.01309 12.2807 7.98545 12.2836C7.92 12.2909 7.88945 12.2967 7.73091 12.3331C7.56218 12.3738 7.56218 12.3738 7.52 12.3898C7.49963 12.3971 7.48072 12.4044 7.47636 12.4044C7.456 12.4073 7.29454 12.4625 7.23636 12.4873C7.12 12.5353 6.97018 12.6065 6.88872 12.6502C6.84072 12.6764 6.78836 12.7025 6.77527 12.7069C6.76072 12.7127 6.74909 12.7214 6.74909 12.7287C6.74909 12.736 6.74181 12.7418 6.73309 12.7418C6.72436 12.7418 6.66472 12.7782 6.60072 12.8218C6.53672 12.8654 6.48 12.9018 6.47272 12.9018C6.46545 12.9018 6.45818 12.9062 6.45527 12.9134C6.45381 12.9193 6.42181 12.9469 6.38545 12.9745C6.29236 13.0473 6.28945 13.0487 6.22109 13.1098C6.02909 13.2844 5.82545 13.4996 5.79781 13.5578C5.79054 13.5724 5.77891 13.5854 5.77309 13.5854C5.76727 13.5854 5.74254 13.6131 5.71927 13.6465C5.696 13.6814 5.64654 13.7527 5.61018 13.808C5.57236 13.8618 5.54181 13.9113 5.54181 13.9185C5.54181 13.9258 5.536 13.9345 5.52872 13.9374C5.48654 13.952 5.22181 14.5382 5.16945 14.7273C5.12291 14.896 5.09236 15.0211 5.08509 15.0618C5.08072 15.0851 5.06763 15.1636 5.05454 15.2364C5.02836 15.392 5.01672 15.5956 5.01236 16.08C5.00945 16.2793 5.00363 16.4625 4.99781 16.4873C4.93963 16.7593 4.88145 16.9004 4.74763 17.0938C4.61818 17.28 4.42327 17.4487 4.22545 17.5447C4.17745 17.568 4.12218 17.5956 4.10181 17.6073C4.08145 17.6174 3.99418 17.6436 3.90545 17.6654C3.72509 17.7105 3.488 17.7193 3.31636 17.6873C3.264 17.6771 3.21454 17.6684 3.20436 17.6669C3.19418 17.6654 3.18109 17.6596 3.17672 17.6538C3.17091 17.648 3.15491 17.6436 3.14036 17.6436C3.09381 17.6436 2.87709 17.5404 2.75491 17.4618C2.63563 17.3833 2.43054 17.1738 2.34763 17.0458C2.27927 16.9396 2.17745 16.7113 2.16145 16.6313C2.15709 16.608 2.14691 16.5585 2.13963 16.5193C2.13091 16.4814 2.12072 16.3898 2.11636 16.3156C2.10618 16.1513 2.10618 16.1513 2.07127 16.08C2.02327 15.9796 1.91418 15.8851 1.81381 15.8589C1.79636 15.8531 1.46181 15.8487 1.06909 15.8487L0.35636 15.8473L0.286542 15.8807C0.202178 15.9229 0.11636 16.0058 0.078542 16.0814C0.0552693 16.1294 0.0509056 16.1687 0.0523602 16.3491C0.0523602 16.5309 0.0596329 16.64 0.0799965 16.7636C0.0959965 16.8611 0.113451 16.9614 0.122178 16.9964C0.125087 17.0124 0.135269 17.0545 0.143997 17.0909C0.202178 17.3484 0.376724 17.7833 0.501815 17.9854C0.522178 18.0174 0.543997 18.0567 0.551269 18.0727C0.578906 18.1338 0.795633 18.4334 0.887269 18.5382C0.977451 18.64 1.12727 18.7985 1.14909 18.816C1.16072 18.8262 1.19418 18.8553 1.22181 18.88C1.36727 19.0124 1.63781 19.2116 1.79636 19.3033C1.90545 19.3658 2.13091 19.4764 2.14981 19.4764C2.15854 19.4764 2.16727 19.4822 2.16727 19.4894C2.16727 19.4967 2.18181 19.5054 2.19927 19.5098C2.21818 19.5142 2.29527 19.5418 2.37091 19.5709C2.44654 19.6 2.51927 19.6262 2.53091 19.6291C2.58327 19.6422 2.848 19.7076 2.88727 19.7164C2.912 19.7222 2.95127 19.7294 2.97454 19.7324C2.99927 19.7338 3.03854 19.7396 3.06181 19.744C3.17381 19.7658 3.31636 19.7745 3.57091 19.7745C3.84872 19.7731 4.01309 19.7614 4.16 19.7309C4.18036 19.7265 4.21818 19.7193 4.24581 19.7149C4.33018 19.7004 4.55709 19.6436 4.59636 19.6262C4.608 19.6218 4.63127 19.6145 4.64727 19.6116C4.66327 19.6102 4.68945 19.6014 4.70545 19.5942C4.72145 19.5869 4.79418 19.5578 4.86545 19.5302C4.93818 19.5025 5.02836 19.4618 5.06763 19.4414C5.10691 19.4211 5.14327 19.4036 5.15054 19.4036C5.168 19.4036 5.40654 19.2625 5.52727 19.1825C5.74836 19.0327 6.03491 18.7811 6.22691 18.5658C6.29672 18.4873 6.49891 18.2124 6.55418 18.1207C6.58327 18.0698 6.61818 18.0174 6.62981 18.0029C6.64145 17.9898 6.64727 17.9782 6.64145 17.9782C6.63709 17.9782 6.64727 17.9534 6.66618 17.9229C6.73891 17.8051 6.89309 17.44 6.93091 17.2945C6.93381 17.2829 6.94981 17.2262 6.96436 17.1709C7.00218 17.0356 7.03854 16.864 7.04727 16.7854C7.05163 16.7491 7.05745 16.704 7.06181 16.6836C7.07636 16.6124 7.08654 16.3651 7.08945 15.9709C7.09236 15.7469 7.10254 15.536 7.11127 15.4909C7.14181 15.344 7.21163 15.1534 7.26109 15.0793C7.27709 15.0574 7.28581 15.04 7.28145 15.04C7.26254 15.04 7.42691 14.8233 7.504 14.7476C7.65381 14.5978 7.78618 14.5105 8.03636 14.3985C8.12218 14.3593 8.40581 14.3084 8.53091 14.3098C8.67636 14.3098 8.89891 14.3491 9.02254 14.3942C9.11272 14.4276 9.27272 14.5062 9.27709 14.5193C9.28 14.5251 9.29163 14.5309 9.30181 14.5309C9.31345 14.5309 9.3309 14.5396 9.34109 14.5484C9.35127 14.5585 9.38618 14.5862 9.41818 14.6109C9.45018 14.6342 9.51854 14.6967 9.57091 14.7491L9.66545 14.8436H10.8029L11.9404 14.8451L11.9316 14.8073C11.9273 14.7869 11.92 14.7636 11.9142 14.7564C11.9098 14.7476 11.904 14.7302 11.9025 14.7156C11.8924 14.6502 11.7847 14.3884 11.6902 14.1978C11.5578 13.9331 11.5593 13.9345 11.5462 13.9345C11.5389 13.9345 11.5345 13.9287 11.5345 13.9214C11.5345 13.904 11.4167 13.7251 11.4007 13.7193C11.3949 13.7164 11.3891 13.7076 11.3891 13.7004C11.3891 13.6887 11.36 13.6494 11.3207 13.6073C11.3105 13.5956 11.3018 13.5811 11.3018 13.5738C11.3018 13.5651 11.2975 13.5564 11.2916 13.5534C11.2844 13.5505 11.2538 13.52 11.2233 13.4836C11.0415 13.2742 10.7535 13.0036 10.6531 12.9484C10.6342 12.9382 10.6182 12.9236 10.6182 12.9164C10.6182 12.9076 10.6095 12.9018 10.5993 12.9018C10.5876 12.9018 10.5673 12.8887 10.5527 12.8727C10.5382 12.8567 10.5178 12.8436 10.5076 12.8436C10.4975 12.8436 10.4873 12.8378 10.4844 12.832C10.4742 12.8044 10.1324 12.6153 9.94909 12.5338C9.85309 12.4902 9.67418 12.4233 9.64072 12.416C9.62181 12.4131 9.59127 12.4029 9.57091 12.3942C9.53745 12.3796 9.38763 12.3404 9.31636 12.3258C9.30036 12.3229 9.27272 12.3171 9.25527 12.3127C9.17818 12.2953 9.15491 12.2909 9.09818 12.2822C8.92072 12.2545 8.76654 12.2429 8.53381 12.2414C8.41454 12.24 8.31709 12.2414 8.31563 12.2429Z" fill="#1B9AAA"/>
<path d="M18.3098 12.24C18.3069 12.2429 18.2531 12.2488 18.1891 12.2531C18.0291 12.2662 17.9389 12.2793 17.7745 12.3128C17.7542 12.3171 17.7222 12.3229 17.7018 12.3273C17.6262 12.3419 17.3265 12.4349 17.2262 12.4771C17.168 12.5004 17.12 12.5179 17.12 12.5164C17.12 12.5135 17.0327 12.5557 16.928 12.6095C16.7273 12.7113 16.5775 12.7971 16.5702 12.8175C16.5673 12.8233 16.5585 12.8291 16.5513 12.8291C16.5425 12.8291 16.5076 12.8509 16.4727 12.8757C16.4393 12.9019 16.3927 12.9368 16.3695 12.9528C16.3476 12.9688 16.3229 12.9877 16.3142 12.9964C16.3055 13.0037 16.2589 13.0429 16.2109 13.0837C16.0116 13.2495 15.7324 13.5564 15.6102 13.744C15.5811 13.7891 15.5535 13.8284 15.5491 13.8328C15.5316 13.8473 15.4473 13.9942 15.4473 14.0073C15.4473 14.016 15.4429 14.0219 15.4371 14.0219C15.4298 14.0219 15.4065 14.064 15.3818 14.1164C15.3585 14.1673 15.3338 14.2109 15.328 14.2109C15.3207 14.2109 15.3164 14.2226 15.3164 14.2371C15.3164 14.2517 15.3076 14.2749 15.296 14.2909C15.2582 14.3477 15.0895 14.8073 15.1069 14.8073C15.1113 14.8073 15.1069 14.8204 15.0982 14.8349C15.0909 14.8509 15.0793 14.8888 15.0749 14.9193C15.0705 14.9499 15.0633 14.9789 15.0589 14.9848C15.0516 14.9979 15.0444 15.0342 15.0327 15.1128C15.0284 15.1419 15.0211 15.1811 15.0182 15.2C15.0109 15.2364 15.0022 15.3033 14.9876 15.4109C14.9847 15.4429 14.9775 15.6786 14.9745 15.9346C14.9716 16.1906 14.9658 16.4189 14.9615 16.4437C14.9556 16.4669 14.9484 16.5106 14.944 16.5382C14.9396 16.5659 14.9193 16.6415 14.8989 16.7055C14.784 17.0735 14.5018 17.3935 14.1396 17.5695C14.0538 17.6102 13.8938 17.6655 13.8182 17.6786C13.7978 17.6829 13.7818 17.6859 13.7818 17.6873C13.7818 17.6946 13.6465 17.7033 13.5273 17.7048C13.3498 17.7062 13.2495 17.6917 13.0909 17.6422C12.8625 17.5695 12.6618 17.4459 12.4931 17.2757L12.3913 17.1724L11.2684 17.1709C10.6502 17.1709 10.1411 17.1724 10.1367 17.1739C10.1222 17.1797 10.1687 17.3586 10.1876 17.3702C10.1964 17.376 10.1993 17.3819 10.1935 17.3819C10.1847 17.3819 10.2793 17.6393 10.3113 17.6975C10.3185 17.712 10.3491 17.7731 10.3782 17.8328C10.4495 17.9797 10.6109 18.2502 10.6473 18.2837C10.6516 18.288 10.672 18.3171 10.6938 18.3491C10.7156 18.3811 10.7491 18.4248 10.7665 18.4451C10.7855 18.4669 10.8276 18.5164 10.8611 18.5557C11.1156 18.8553 11.4895 19.1608 11.8255 19.3426C11.8996 19.3833 12.0364 19.4531 12.0436 19.4546C12.048 19.4546 12.0771 19.4677 12.1091 19.4822C12.2138 19.5302 12.2836 19.5579 12.3345 19.5709C12.3389 19.5724 12.3622 19.5811 12.3855 19.5913C12.4829 19.632 12.8102 19.7149 12.9382 19.7324C12.9789 19.7368 13.0138 19.7426 13.0196 19.7455C13.0618 19.7717 13.7076 19.7848 13.8836 19.7629C13.9316 19.7571 14 19.7484 14.0364 19.744C14.0727 19.7397 14.1629 19.7237 14.2385 19.7077C14.3127 19.6902 14.3855 19.6757 14.3985 19.6728C14.4116 19.6699 14.4655 19.6539 14.5207 19.6364C14.5745 19.6189 14.6269 19.6029 14.6371 19.6015C14.6458 19.5986 14.6676 19.5913 14.6836 19.5855C14.6996 19.5797 14.7593 19.5564 14.8145 19.5346C15.392 19.3077 15.9316 18.9033 16.3025 18.4146C16.3607 18.3389 16.4204 18.2604 16.4364 18.24C16.4524 18.2197 16.4655 18.1964 16.4655 18.1862C16.4655 18.1775 16.4713 18.1673 16.4771 18.1644C16.4916 18.1586 16.592 17.9869 16.6705 17.8357C16.7724 17.6364 16.8829 17.3382 16.9396 17.1128C16.9455 17.088 16.9513 17.0662 16.9527 17.0619C16.9585 17.0386 16.9745 16.9615 16.9818 16.9237C16.9862 16.8989 16.992 16.864 16.9964 16.8437C16.9993 16.8233 17.0065 16.7739 17.0124 16.7346C17.0167 16.6939 17.024 16.6386 17.0269 16.6109C17.0313 16.5833 17.0371 16.3695 17.04 16.1382C17.0487 15.5811 17.0516 15.5346 17.104 15.36C17.1476 15.2073 17.2436 14.9964 17.2684 14.9964C17.2742 14.9964 17.28 14.9891 17.28 14.9804C17.28 14.9629 17.3644 14.8509 17.4313 14.7782C17.8007 14.384 18.3375 14.2255 18.8509 14.3564C18.9556 14.3826 19.1651 14.4655 19.1855 14.4873C19.1898 14.4917 19.2175 14.5077 19.248 14.5222C19.2771 14.5382 19.3018 14.5557 19.3018 14.5629C19.3018 14.5688 19.3091 14.5746 19.3178 14.5746C19.3455 14.5746 19.4807 14.6924 19.5927 14.816C19.7076 14.9426 19.8298 15.1637 19.8807 15.3382C19.936 15.5273 19.9404 15.5724 19.9491 15.9273C19.9578 16.3186 19.968 16.5804 19.9782 16.6473C20.0073 16.8451 20.0335 16.9935 20.0524 17.0691C20.0829 17.1957 20.16 17.4415 20.1833 17.4866C20.1949 17.5069 20.2036 17.5331 20.2036 17.5433C20.2036 17.5753 20.4029 17.9709 20.4829 18.0989C20.5527 18.2124 20.7025 18.4189 20.7942 18.5309C20.8422 18.5891 21.1316 18.88 21.2087 18.9455C21.2873 19.0139 21.568 19.2175 21.5796 19.2146C21.5855 19.2131 21.5942 19.2189 21.5985 19.2262C21.6116 19.248 21.7469 19.3251 21.9345 19.4182C22.1905 19.5477 22.5265 19.6626 22.7942 19.7149C22.8058 19.7179 22.8378 19.7237 22.8655 19.7295C22.9178 19.7397 22.9425 19.7426 23.12 19.7629C23.248 19.7775 23.7164 19.7775 23.8327 19.7644C24.0335 19.7397 24.1178 19.7266 24.2225 19.7019C24.2676 19.6917 24.3055 19.6873 24.3055 19.6917C24.3055 19.696 24.3127 19.6931 24.3229 19.6829C24.3331 19.6728 24.352 19.6655 24.3665 19.6655C24.3942 19.6655 24.7113 19.5637 24.7956 19.5273C24.9469 19.4619 25.1985 19.3339 25.3062 19.2669C25.3731 19.2262 25.4444 19.184 25.4633 19.1739C25.4822 19.1637 25.4982 19.1491 25.4982 19.1404C25.4982 19.1331 25.5084 19.1273 25.52 19.1273C25.5316 19.1273 25.5418 19.1229 25.5418 19.1157C25.5418 19.1099 25.5724 19.0851 25.6073 19.0619C25.6436 19.0371 25.6727 19.0139 25.6727 19.0066C25.6727 19.0008 25.6785 18.9964 25.6858 18.9964C25.7164 18.9964 26.032 18.6924 26.1687 18.5309C26.2735 18.4073 26.3825 18.2604 26.4029 18.2168C26.4116 18.1979 26.4233 18.1819 26.4291 18.1819C26.4349 18.1819 26.448 18.1615 26.4582 18.1382C26.4684 18.1135 26.4815 18.0946 26.4887 18.0946C26.496 18.0946 26.5018 18.0815 26.5018 18.0655C26.5018 18.0495 26.5062 18.0364 26.5135 18.0364C26.5193 18.0364 26.5309 18.0219 26.5396 18.0029C26.5498 17.9855 26.5804 17.9244 26.6109 17.8691C26.7185 17.6626 26.8945 17.2029 26.8727 17.1797C26.8684 17.1768 26.3578 17.1724 25.7382 17.1724L24.6124 17.1709L24.5149 17.2699C24.4625 17.3237 24.3724 17.4022 24.3142 17.4415C24.2124 17.5128 24.0044 17.6219 23.9389 17.6364C23.92 17.6393 23.8691 17.6524 23.8255 17.6655C23.5942 17.7266 23.2873 17.7208 23.0691 17.648C23.0327 17.6364 22.9935 17.6248 22.9804 17.6219C22.9673 17.6189 22.944 17.6102 22.9295 17.6029C22.9135 17.5942 22.8698 17.5724 22.8291 17.5549C22.7898 17.536 22.7505 17.5157 22.7418 17.5084C22.7345 17.5026 22.6982 17.4779 22.6618 17.4546C22.6255 17.4313 22.5731 17.3906 22.5425 17.3644C22.5135 17.3382 22.4785 17.3048 22.4625 17.2917C22.384 17.2204 22.2938 17.1026 22.2225 16.9804C22.1673 16.8859 22.0596 16.6124 22.0727 16.5993C22.0756 16.5949 22.0727 16.5833 22.064 16.5717C22.0553 16.5615 22.0509 16.5528 22.0553 16.5528C22.0596 16.5528 22.0567 16.5309 22.0495 16.5048C22.0422 16.48 22.032 16.3273 22.0291 16.1673C22.0189 15.7484 22.0073 15.4299 22 15.3906C21.9971 15.3717 21.9898 15.3193 21.984 15.2742C21.9724 15.1666 21.9418 15.0197 21.8967 14.8509C21.8764 14.7753 21.8575 14.7055 21.856 14.6982C21.8531 14.6895 21.8444 14.6648 21.8356 14.6429C21.8255 14.6197 21.8182 14.5949 21.8182 14.5877C21.8182 14.5789 21.8022 14.5368 21.7818 14.4931C21.7615 14.4495 21.7455 14.4117 21.7455 14.4073C21.7455 14.4044 21.7382 14.384 21.728 14.3608C21.7193 14.3389 21.7105 14.3171 21.7091 14.3128C21.7091 14.3084 21.6989 14.2895 21.6873 14.2691C21.6756 14.2488 21.6655 14.2299 21.6655 14.2255C21.664 14.2153 21.5971 14.0888 21.5491 14.0073C21.5287 13.9709 21.504 13.9273 21.4953 13.9084C21.4865 13.8909 21.4735 13.8764 21.4662 13.8764C21.4604 13.8764 21.4545 13.8691 21.4545 13.8604C21.4545 13.8415 21.3425 13.6829 21.2218 13.5346C20.8742 13.1026 20.3433 12.7069 19.8473 12.5091C19.7833 12.4844 19.7178 12.4568 19.7018 12.4509C19.6175 12.4146 19.2655 12.3186 19.1491 12.2997C19.1258 12.2968 19.1055 12.2924 19.1055 12.2909C19.1055 12.288 19.0895 12.2851 19.0691 12.2837C19.0487 12.2822 19.0065 12.2764 18.9745 12.272C18.8553 12.2531 18.7505 12.2459 18.5353 12.2415C18.4131 12.2386 18.3113 12.2386 18.3098 12.24Z" fill="#1B9AAA"/>
<path d="M28.2575 12.2414C28.256 12.2429 28.2022 12.2487 28.1382 12.2545C28.0742 12.2589 28.0058 12.2662 27.9855 12.2691C27.9651 12.272 27.9258 12.2792 27.8982 12.2822C27.7833 12.2996 27.7556 12.3054 27.6436 12.3331C27.2756 12.4232 27.0022 12.5338 26.6836 12.7171C26.5833 12.7752 26.4145 12.8843 26.4 12.9003C26.3956 12.9062 26.368 12.9251 26.3389 12.9454C26.3084 12.9658 26.2836 12.9862 26.2836 12.992C26.2836 12.9992 26.2778 13.0036 26.2691 13.0036C26.2618 13.0036 26.2429 13.0152 26.2269 13.0283C26.2124 13.0429 26.1556 13.0938 26.1018 13.1418C25.9564 13.2698 25.8051 13.4327 25.68 13.5912C25.6567 13.6218 25.6276 13.6567 25.6189 13.6669C25.6087 13.6771 25.6 13.6916 25.6 13.6989C25.6 13.7076 25.5956 13.7163 25.5898 13.7192C25.5724 13.7265 25.4836 13.8574 25.4836 13.8734C25.4836 13.8822 25.4778 13.8909 25.472 13.8938C25.4531 13.9011 25.2451 14.2865 25.2436 14.3156C25.2436 14.3214 25.2349 14.3345 25.2262 14.3432C25.216 14.3534 25.2073 14.3723 25.2073 14.3854C25.2073 14.3985 25.2029 14.4145 25.1971 14.4203C25.1898 14.4262 25.1855 14.4363 25.184 14.4407C25.184 14.4465 25.1767 14.4669 25.168 14.4872C25.1345 14.5658 25.0618 14.7956 25.0618 14.8203C25.0618 14.8451 25.1185 14.8465 26.1905 14.8465H27.3193L27.4182 14.7505C27.5738 14.5992 27.648 14.544 27.8036 14.4669C27.9869 14.3767 28.1571 14.3287 28.3273 14.32C28.384 14.3171 28.432 14.3127 28.4364 14.3112C28.4524 14.3083 28.5338 14.3112 28.6109 14.32C29.3149 14.3971 29.8633 14.9803 29.8982 15.6872C29.9084 15.8865 29.9447 15.9811 30.0407 16.0654C30.1367 16.1498 30.2385 16.1818 30.4 16.176C30.4436 16.1745 30.4902 16.1731 30.5018 16.1731C30.5775 16.176 30.8611 16.176 30.8727 16.1745C30.8815 16.1731 30.8902 16.1716 30.8945 16.1745C30.9193 16.1832 31.1127 16.1803 31.1127 16.1702C31.1127 16.1629 31.12 16.1629 31.1287 16.1687C31.1433 16.1774 31.3004 16.1818 31.3382 16.1745C31.3469 16.1716 31.3571 16.1731 31.3644 16.1745C31.3891 16.1803 31.5607 16.176 31.6218 16.1672C31.7833 16.1454 31.9229 16.0189 31.968 15.8545C31.9753 15.8269 31.9724 15.5476 31.9636 15.4618C31.9549 15.3745 31.9418 15.2611 31.9331 15.2072C31.9287 15.1825 31.9229 15.1476 31.92 15.1272C31.9127 15.0705 31.84 14.7738 31.8255 14.7418C31.8182 14.7258 31.8022 14.6763 31.7891 14.6327C31.7644 14.5512 31.7324 14.4698 31.7091 14.4262C31.7004 14.4116 31.6945 14.3942 31.6945 14.3854C31.6945 14.3389 31.4705 13.9287 31.3716 13.7934C31.3411 13.7512 31.3164 13.7134 31.3164 13.7091C31.3164 13.7032 31.3076 13.6916 31.2989 13.6814C31.2887 13.6712 31.264 13.6407 31.2436 13.6145C31.0007 13.2916 30.6313 12.9614 30.2618 12.7389C30.0829 12.6312 29.7498 12.4785 29.5491 12.4131C29.5229 12.4043 29.2727 12.3331 29.2509 12.3287C29.1447 12.304 28.9265 12.2691 28.7855 12.2531C28.7069 12.2443 28.2647 12.2342 28.2575 12.2414Z" fill="#1B9AAA"/>
</svg>
