<svg width="32" height="32" viewBox="0 0 32 32" fill="none" xmlns="http://www.w3.org/2000/svg">
<g clip-path="url(#clip0_21_49)">
<path fill-rule="evenodd" clip-rule="evenodd" d="M16.2041 6.40002C11.9894 6.40002 9.35587 8.49468 8.30172 12.684C9.88232 10.5893 11.7261 9.804 13.8332 10.3274C15.0353 10.6259 15.895 11.493 16.8457 12.453C18.3953 14.0162 20.189 15.8254 24.1058 15.8254C28.3199 15.8254 30.954 13.7307 32.0075 9.54201C30.4276 11.6367 28.5837 12.422 26.4767 11.898C25.2739 11.5995 24.4142 10.7324 23.4635 9.77303C21.9139 8.20854 20.1209 6.40002 16.2041 6.40002ZM8.30172 15.8254C4.08763 15.8254 1.45352 17.92 0.399994 22.1093C1.98059 20.0147 3.82441 19.2293 5.93083 19.7527C7.13362 20.0512 7.99329 20.9183 8.94399 21.8783C10.4936 23.4416 12.2867 25.2507 16.2041 25.2507C20.4182 25.2507 23.0523 23.1567 24.1058 18.9674C22.5252 21.062 20.6814 21.8474 18.5743 21.324C17.3722 21.0248 16.5125 20.1578 15.5618 19.1984C14.0122 17.6351 12.2185 15.8254 8.30172 15.8254Z" fill="#1B9AAA"/>
</g>
<defs>
<clipPath id="clip0_21_49">
<rect width="32" height="32" fill="white"/>
</clipPath>
</defs>
</svg>
