<svg width="32" height="32" viewBox="0 0 32 32" fill="none" xmlns="http://www.w3.org/2000/svg">
<g clip-path="url(#clip0_61_510)">
<path fill-rule="evenodd" clip-rule="evenodd" d="M4 0C1.79086 0 0 1.79086 0 4V28C0 30.2091 1.79086 32 4 32H28C30.2091 32 32 30.2091 32 28V4C32 1.79086 30.2091 0 28 0H4ZM17.9033 11.2582C16.2912 11.9287 13.0692 13.3166 8.23741 15.4217C7.45279 15.7337 7.04178 16.039 7.00436 16.3374C6.94113 16.8419 7.57279 17.0405 8.43296 17.311C8.54996 17.3477 8.67119 17.3859 8.79548 17.4263C9.64175 17.7014 10.7801 18.0232 11.3719 18.036C11.9087 18.0476 12.5079 17.8263 13.1694 17.372C17.6839 14.3246 20.0143 12.7843 20.1606 12.7511C20.2639 12.7276 20.4069 12.6982 20.5038 12.7843C20.6007 12.8705 20.5912 13.0336 20.5809 13.0774C20.5183 13.3441 18.0388 15.6493 16.7557 16.8423C16.3556 17.2142 16.0719 17.4779 16.0139 17.5382C15.884 17.6731 15.7515 17.8008 15.6243 17.9235C14.8381 18.6814 14.2485 19.2498 15.6569 20.1779C16.3337 20.6239 16.8753 20.9927 17.4156 21.3607C18.0057 21.7625 18.5943 22.1634 19.3558 22.6625C19.5498 22.7897 19.7351 22.9218 19.9156 23.0505C20.6023 23.54 21.2192 23.9799 21.9815 23.9097C22.4244 23.869 22.8818 23.4525 23.1142 22.2105C23.6633 19.2751 24.7426 12.915 24.992 10.2942C25.0139 10.0645 24.9864 9.77068 24.9643 9.64168C24.9422 9.51268 24.8961 9.32888 24.7284 9.19282C24.5298 9.03168 24.2232 8.9977 24.0861 9.00012C23.4627 9.0111 22.5063 9.34367 17.9033 11.2582Z" fill="#1B9AAA"/>
</g>
<defs>
<clipPath id="clip0_61_510">
<rect width="32" height="32" fill="white"/>
</clipPath>
</defs>
</svg>
