<?xml version="1.0" encoding="utf-8"?>
<!-- Generator: Adobe Illustrator 27.2.0, SVG Export Plug-In . SVG Version: 6.00 Build 0)  -->
<svg version="1.1" id="Layer_1" xmlns="http://www.w3.org/2000/svg" xmlns:xlink="http://www.w3.org/1999/xlink" x="0px" y="0px"
	 viewBox="0 0 410 404" style="enable-background:new 0 0 410 404;" xml:space="preserve">
<style type="text/css">
	.st0{fill:#1B9AAA;}
</style>
<path class="st0" d="M389.1,44.8L282.5,64.2l-9.2,31.9c-1,3.6,2.1,7,5.8,6.3l39-7.5c4.1-0.8,7.3,3.4,5.4,7.1l-111,221.4l-2,3.1
	c-3,4.6-10.2,1.7-9.1-3.7l17.9-86.6c0.8-3.7-2.7-6.9-6.3-5.8l-23.4,7.1c-3.6,1.1-7.1-2.1-6.4-5.8l11.3-55.2c0.7-3.6-2.5-6.7-6-5.9
	l-37.9,8.7c-3.3,0.8-6.3-1.8-6.1-5.2l6.3-106.4L21,44.8c-8.3-1.5-14.6,7.4-10.4,14.8l187.6,329.1c3.9,6.8,13.6,6.7,17.4-0.1l184-329
	C403.8,52.1,397.4,43.3,389.1,44.8z"/>
</svg>
