<svg width="32" height="32" viewBox="0 0 32 32" fill="none" xmlns="http://www.w3.org/2000/svg">
<g clip-path="url(#clip0_606_5278)">
<path d="M15.9456 30.1727C12.7311 30.1727 9.51575 30.1743 6.30123 30.1719C5.03464 30.1711 3.76725 30.1623 2.50065 30.1543C1.13959 30.1455 0.00669707 29.0166 0.00589644 27.6532C0.00349456 19.8494 0.00269393 12.0465 0.00589644 4.24272C0.00589644 2.80639 1.13318 1.69752 2.57911 1.69752C6.2604 1.69592 9.94249 1.70072 13.6238 1.69031C13.9304 1.68951 14.1482 1.77838 14.3563 1.99695C14.8527 2.51817 15.3916 3.00095 15.8727 3.53577C16.161 3.85602 16.4724 3.94729 16.8879 3.94649C21.0496 3.93368 25.2113 3.93848 29.3737 3.93848C30.8757 3.93848 31.9838 5.03615 31.9854 6.52612C31.9918 13.5156 31.9982 20.5051 32.0038 27.4946C32.0054 29.0927 30.9181 30.1727 29.3121 30.1727C24.8566 30.1727 20.4011 30.1727 15.9464 30.1727H15.9456ZM2.52227 27.5859H29.4162V11.5797C29.2384 11.5797 29.0927 11.5797 28.9478 11.5797C20.3178 11.5797 11.6887 11.5797 3.05869 11.5797C2.70161 11.5797 2.5228 11.7617 2.52227 12.1257C2.52227 17.1145 2.52227 22.1024 2.52227 27.0911C2.52227 27.248 2.52227 27.405 2.52227 27.5859ZM20.1145 9.06172C23.048 9.06172 25.9807 9.06172 28.9142 9.06172C29.2824 9.06172 29.4669 8.87197 29.4674 8.49247C29.4674 7.98567 29.4674 7.47887 29.4674 6.97287C29.4674 6.62967 29.2921 6.45753 28.9414 6.45647C24.5684 6.45647 20.1953 6.45647 15.8223 6.45647C14.3027 6.45647 12.7823 6.47328 11.2627 6.44606C10.8408 6.43805 10.7391 6.57656 10.7615 6.96727C10.792 7.49889 10.7976 8.03531 10.7599 8.56613C10.7303 8.98406 10.88 9.07373 11.2755 9.07213C14.2218 9.05611 17.169 9.06332 20.1153 9.06332L20.1145 9.06172ZM3.59911 6.3756C2.85693 6.374 2.28528 6.94485 2.28448 7.68864C2.28448 8.4044 2.85693 8.97685 3.5791 8.98166C4.3437 8.98646 4.95377 8.4004 4.94577 7.66942C4.93776 6.94725 4.3453 6.378 3.59911 6.3764V6.3756ZM7.44933 8.98085C8.18991 8.98005 8.78558 8.402 8.78878 7.68143C8.79198 6.94725 8.18591 6.3708 7.41571 6.3748C6.69834 6.37881 6.1355 6.94645 6.1283 7.67423C6.12029 8.406 6.70235 8.98166 7.44933 8.98005V8.98085Z" fill="#1B9AAA"/>
<path d="M21.6781 16.5356C20.6709 16.9736 19.7366 17.3867 18.7943 17.7814C18.691 17.8246 18.5357 17.7766 18.4148 17.7374C16.153 17.0056 13.9849 17.2169 11.9785 18.4907C10.1563 19.6469 9.05383 21.3274 8.68955 23.4683C8.63831 23.7693 8.60548 24.0767 8.60388 24.381C8.60228 24.6516 8.48939 24.7213 8.23959 24.7157C7.65273 24.7028 7.06507 24.6948 6.47901 24.7181C6.16197 24.7309 6.05948 24.6268 6.06909 24.3113C6.11633 22.7253 6.50463 21.2297 7.27724 19.8478C8.82965 17.0712 11.2243 15.4484 14.3332 14.9392C16.7615 14.5412 19.0809 14.9656 21.2178 16.2346C21.3523 16.3146 21.4788 16.4059 21.6781 16.5372V16.5356Z" fill="#1B9AAA"/>
<path d="M24.4426 17.8164C24.1416 18.1231 23.8454 18.4345 23.5379 18.7356C22.4539 19.798 21.3658 20.8572 20.2786 21.9165C19.3154 22.8548 18.3474 23.7891 17.3867 24.7299C16.7158 25.3872 15.7414 25.4569 14.9536 24.8932C14.225 24.3712 13.948 23.3464 14.3275 22.553C14.5477 22.0926 14.8863 21.7916 15.3747 21.5834C17.301 20.7636 19.2089 19.9005 21.1232 19.0534C22.068 18.6355 23.0111 18.2144 23.9574 17.7988C24.0743 17.7476 24.2032 17.726 24.3273 17.6899C24.3658 17.7324 24.4042 17.7748 24.4418 17.8172L24.4426 17.8164Z" fill="#1B9AAA"/>
<path d="M25.9126 24.7029H23.4859C23.2794 23.7902 23.0784 22.9095 22.8855 22.0264C22.8694 21.9535 22.8879 21.839 22.9367 21.7918C23.5356 21.2081 24.1432 20.6325 24.7902 20.016C25.5339 21.4972 25.9687 23.0232 25.9126 24.7037V24.7029Z" fill="#1B9AAA"/>
</g>
<defs>
<clipPath id="clip0_606_5278">
<rect width="32" height="32" fill="white"/>
</clipPath>
</defs>
</svg>
