<svg width="32" height="32" viewBox="0 0 32 32" fill="none" xmlns="http://www.w3.org/2000/svg">
<g clip-path="url(#clip0_606_5267)">
<path d="M29.6587 24.6648L16.6895 32.0017V26.2886L24.7703 21.8423L29.6587 24.6648ZM30.5471 23.8614V8.52031L25.8032 11.2621V21.1239L30.5471 23.8614ZM2.58109 24.6648L15.5503 32.0017V26.2886L7.46527 21.8423L2.58109 24.6648ZM1.69267 23.8614V8.52031L6.43657 11.2621V21.1239L1.69267 23.8614ZM2.24953 7.52562L15.5503 0.00170898V5.52349L7.02743 10.2121L6.95942 10.2504L2.24953 7.52562ZM29.9903 7.52562L16.6895 0.00170898V5.52349L25.2124 10.2079L25.2804 10.2461L29.9903 7.52562Z" fill="#1B9AAA"/>
<path d="M15.5503 24.9879L7.57579 20.6011V11.9167L15.5503 16.5203V24.9879ZM16.6895 24.9879L24.664 20.6053V11.9167L16.6895 16.5203V24.9879ZM8.11564 10.9135L16.1199 6.51392L24.1242 10.9135L16.1199 15.5341L8.11564 10.9135Z" fill="#1B9AAA"/>
</g>
<defs>
<clipPath id="clip0_606_5267">
<rect width="32" height="32" fill="white"/>
</clipPath>
</defs>
</svg>
